<svg width="250" height="235" viewBox="0 0 250 235" fill="none" xmlns="http://www.w3.org/2000/svg">
    <path fill-rule="evenodd" clip-rule="evenodd"
        d="M125.174 30.8757C161.663 30.7388 200.247 42.4691 212.911 76.4633C227.027 114.355 213.65 157.029 181.287 181.502C146.495 207.812 98.0686 215.735 62.935 189.877C28.6103 164.615 23.9713 116.665 39.4529 77.1142C52.4802 43.8331 89.2268 31.0106 125.174 30.8757Z" fill="#FFF6EB" />
    <path fill-rule="evenodd" clip-rule="evenodd"
        d="M0.974898 107.077C0.287335 106.896 -0.132607 106.205 0.0380027 105.515C0.208246 104.861 0.904598 104.424 1.59216 104.606C8.42128 105.915 14.4955 108.095 19.762 111.33C23.5682 113.619 26.9346 116.49 29.8236 119.87C32.5885 123.141 34.9396 126.885 36.7248 131.173C38.7238 135.934 39.9894 141.386 40.6741 147.455C44.4103 146.91 47.7756 147.527 50.6386 149.744C53.2149 151.743 55.4413 155.05 57.0072 160.211C57.2466 160.865 56.8995 161.592 56.2328 161.847C55.5661 162.065 54.831 161.738 54.5915 161.083C52.8364 156.904 50.7949 154.251 48.4763 152.761C45.7634 151.053 42.6756 151.307 39.3173 152.616C38.629 152.834 37.8722 152.761 37.2593 152.361C36.6465 151.998 36.243 151.344 36.1632 150.617C35.2475 144.075 33.5202 138.405 31.3455 133.426C29.7156 129.646 27.8202 126.303 25.5302 123.287C23.1255 120.161 20.3775 117.399 17.2025 115.073C12.5759 111.62 7.18968 108.967 0.974898 107.077Z"
        fill="#262D37" />
    <path fill-rule="evenodd" clip-rule="evenodd"
        d="M131.633 107.914C131.937 107.296 132.706 107.041 133.347 107.332C133.984 107.623 134.255 108.386 133.947 109.04C133.947 109.04 130.795 117.181 126.277 127.757C125.263 130.119 124.154 132.627 122.993 135.135C122.25 136.77 121.496 138.406 120.683 140.005C118.647 144.075 116.454 148.109 114.334 151.925C110.377 159.048 106.584 165.336 104.101 169.443C103.772 170.06 102.996 170.278 102.37 169.951C101.744 169.624 101.502 168.861 101.828 168.243C103.794 163.919 106.573 157.159 109.849 149.708C111.607 145.747 113.463 141.531 115.418 137.461C116.202 135.825 117.033 134.226 117.853 132.663C119.138 130.192 120.412 127.793 121.66 125.54C127.2 115.473 131.633 107.914 131.633 107.914Z"
        fill="#FFAA4D" />
    <path fill-rule="evenodd" clip-rule="evenodd"
        d="M105.888 131.646C106.089 131.9 106.467 132.336 106.814 132.663C109.029 134.771 113.101 137.497 117.23 139.496C120.415 141.058 123.601 142.294 125.889 142.149C125.918 142.149 125.944 142.112 125.969 142.112C126.991 141.567 129.008 140.295 131.717 138.296C142.104 130.628 162.043 112.457 174.93 81.9647C183.592 61.4672 189.135 35.4817 186.429 3.31808C186.36 2.62756 186.876 2.0098 187.583 1.93711C188.286 1.86442 188.915 2.37344 188.981 3.06396C192.595 35.8454 187.66 62.5937 179.243 83.7091C166.506 115.655 145.897 134.807 135.192 142.876C132.168 145.165 129.883 146.583 128.737 147.201C127.84 147.673 127.214 147.818 126.991 147.855C125.277 148.073 123.147 147.818 120.829 147.164C117.227 146.11 113.075 144.075 109.502 141.858C106.177 139.786 103.355 137.533 101.85 135.861C100.444 134.262 100.012 132.772 100.081 131.827C101.623 111.73 110.589 82.4008 126.665 55.7976C140.669 32.6107 160.04 11.4953 184.225 0.119956C184.862 -0.170789 185.631 0.0838255 185.943 0.701658C186.254 1.35583 185.986 2.11875 185.353 2.4095C162.035 14.0756 143.752 35.1912 130.55 58.051C115.623 83.9273 107.202 112.093 105.888 131.646Z"
        fill="#FFAA4D" />
    <path fill-rule="evenodd" clip-rule="evenodd"
        d="M154.662 23.0157C154.164 22.5069 154.175 21.671 154.68 21.1985C155.189 20.6897 156.002 20.7263 156.496 21.2351C156.496 21.2351 158.726 22.6524 162.493 24.6149C163.712 25.2691 165.081 25.9231 166.575 26.65C167.432 27.0861 168.332 27.5222 169.251 28.031C170.525 28.6851 171.818 29.4485 173.22 30.1753C175.552 31.411 177.965 32.6466 180.747 33.5552C181.443 33.7006 181.904 34.3549 181.773 35.0455C181.644 35.736 180.974 36.2084 180.275 36.063C177.105 35.9176 174.179 35.5541 171.433 34.8272C169.391 34.282 167.501 33.5917 165.803 32.7921C165.063 32.4287 164.382 31.9926 163.734 31.5929C162.669 30.9024 161.698 30.1752 160.838 29.4847C156.657 25.9594 154.662 23.0157 154.662 23.0157Z"
        fill="#FFAA4D" />
    <path fill-rule="evenodd" clip-rule="evenodd"
        d="M112.182 90.6865C111.636 90.2141 111.567 89.4145 112.02 88.8694C112.474 88.3242 113.284 88.2514 113.825 88.7239C113.825 88.7239 117.699 91.1954 123.601 94.5753C125.6 95.702 127.818 96.9375 130.18 98.2458C131.593 99.0454 133.05 99.8814 134.526 100.754C136.634 101.989 138.772 103.297 140.991 104.533C144.912 106.75 148.914 108.858 153.058 110.385C153.739 110.566 154.142 111.293 153.955 111.947C153.768 112.638 153.062 113.038 152.377 112.856C147.819 112.02 143.232 110.748 138.838 109.004C135.869 107.841 133.01 106.532 130.366 105.042C129.257 104.424 128.206 103.77 127.192 103.079C125.563 102.025 124.04 100.935 122.645 99.8813C116.154 94.8659 112.182 90.6865 112.182 90.6865Z"
        fill="#FFAA4D" />
    <path fill-rule="evenodd" clip-rule="evenodd"
        d="M160.402 63.1025C160.121 62.4484 160.421 61.7217 161.069 61.4309C161.72 61.1402 162.475 61.4308 162.757 62.085C165.993 68.3724 164.276 74.7325 160.626 79.0573C158.023 82.1101 154.329 84.0364 150.624 84.3998C147.903 84.6179 145.165 83.9274 142.69 82.2192C139.805 80.1477 137.993 77.5672 137.169 74.8051C135.829 70.3712 136.891 65.4651 139.666 61.7581C143.744 56.3067 151.305 53.1448 159.033 57.6876C159.663 58.0147 159.912 58.778 159.586 59.3958C159.26 60.05 158.488 60.2681 157.858 59.941C151.682 57.2516 146.318 60.0498 143.671 64.4473C142.097 67.0277 141.595 70.1896 142.606 73.0607C143.191 74.7325 144.312 76.2954 146.102 77.5674C148.09 79.0938 150.492 79.2752 152.729 78.5484C154.362 78.0396 155.932 77.1311 157.243 75.8954C160.406 72.9153 162.255 68.2269 160.402 63.1025Z"
        fill="#FFAA4D" />
    <path fill-rule="evenodd" clip-rule="evenodd"
        d="M140.12 164.936C146.805 155.087 154.069 144.802 154.742 143.821C156.489 141.313 157.129 137.751 157.287 134.044C157.569 127.43 156.276 120.379 155.866 117.326C155.749 116.636 156.218 115.982 156.917 115.873C157.616 115.727 158.279 116.2 158.396 116.89C159.055 120.052 160.919 127.212 161.102 134.081C161.226 138.624 160.538 143.021 158.594 146.256C157.913 147.382 150.279 159.775 143.378 170.424C137.875 178.892 132.819 186.233 132.819 186.233C132.025 187.432 130.443 187.832 129.162 187.178C127.884 186.487 127.331 184.961 127.884 183.652C127.884 183.652 131.245 175.984 134.643 166.608C136.678 160.975 138.751 154.76 140.05 149.163C140.98 145.129 141.548 141.458 141.398 138.624C141.31 136.988 141.053 135.68 140.409 134.771C139.981 134.189 140.091 133.39 140.654 132.99C141.222 132.554 142.027 132.663 142.452 133.244C144.766 136.043 144.865 142.403 143.635 149.853C142.844 154.687 141.548 159.957 140.12 164.936Z"
        fill="#FFAA4D" />
    <path fill-rule="evenodd" clip-rule="evenodd"
        d="M111.548 91.1962C112.207 90.9418 112.954 91.2689 113.214 91.9231C113.478 92.5773 113.152 93.3041 112.496 93.5585C109.542 94.8669 102.245 99.446 96.208 104.134C92.1478 107.296 88.6038 110.349 87.8789 112.457C87.2529 114.238 85.5944 119.762 83.5295 126.376C82.1529 130.81 80.6262 135.716 79.1105 140.368C78.587 141.967 78.0707 143.53 77.5692 145.02C81.5305 140.477 86.2424 135.389 90.709 131.355C95.7431 126.776 100.543 123.578 103.658 123.505C104.365 123.469 104.976 123.977 105.017 124.704C105.061 125.395 104.522 126.013 103.816 126.049C101.107 126.303 97.3174 129.611 93.1839 133.863C83.3977 143.93 72.4545 159.63 72.4545 159.63C71.6711 160.72 70.2249 161.048 69.0424 160.466C67.8598 159.848 67.2887 158.503 67.6951 157.231C67.6951 157.231 69.1632 152.252 71.294 145.565C72.4253 142.004 73.736 137.97 75.1052 133.936C78.598 123.614 82.3506 113.329 83.3757 110.785C83.8371 109.658 84.8146 108.277 86.279 106.86C88.1718 105.006 90.8737 102.971 93.8612 100.936C100.455 96.5022 108.392 92.3228 111.548 91.1962Z"
        fill="#FFAA4D" />
    <path fill-rule="evenodd" clip-rule="evenodd"
        d="M102.264 133.099C102.399 132.409 103.073 131.973 103.768 132.082C104.46 132.227 104.918 132.881 104.786 133.572C104.673 135.244 104.032 137.969 105.555 140.695C106.009 141.494 106.748 142.221 107.726 143.021C108.528 143.675 109.52 144.293 110.75 144.911C112.522 146.001 114.078 146.764 115.436 147.309C117.164 148 118.479 148.436 119.672 148.218C121.602 147.891 123.041 146.546 124.479 144.438C124.809 143.821 125.585 143.602 126.211 143.93C126.841 144.257 127.082 145.02 126.753 145.638C125.413 149.09 123.557 151.343 120.884 152.397C118.772 153.233 116.048 153.233 112.449 152.034C111.061 151.598 109.564 150.835 107.876 149.962C106.642 149.199 105.584 148.436 104.739 147.673C102.886 145.928 101.788 144.184 101.26 142.512C100.678 140.659 100.616 138.914 100.916 137.352C101.253 135.643 101.897 134.19 102.264 133.099Z"
        fill="#FFAA4D" />
    <path fill-rule="evenodd" clip-rule="evenodd"
        d="M115.883 155.85C116.026 155.16 116.703 154.724 117.399 154.833C118.091 154.978 118.541 155.669 118.398 156.359C118.398 156.359 117.531 164.136 116.066 174.094C115.733 176.348 115.345 178.71 114.916 181.145C114.642 182.672 114.367 184.271 114.031 185.797C113.166 189.795 112.167 193.72 111.219 197.39C108.693 207.094 106.437 214.617 106.437 214.617C106.295 215.307 105.617 215.744 104.925 215.598C104.23 215.489 103.783 214.799 103.922 214.108C103.922 214.108 104.812 206.331 106.317 196.373C106.884 192.666 107.517 188.632 108.294 184.634C108.597 183.071 108.96 181.545 109.319 180.018C109.879 177.62 110.454 175.294 111.039 173.077C113.61 163.337 115.883 155.85 115.883 155.85Z"
        fill="#262D37" />
    <path fill-rule="evenodd" clip-rule="evenodd"
        d="M96.5193 176.093C96.8671 175.512 97.6506 175.294 98.2657 175.621C98.8844 175.984 99.1004 176.747 98.7526 177.365C98.7526 177.365 95.1207 185.215 90.1526 195.101C89.0176 197.354 87.7948 199.68 86.5207 202.078C85.7006 203.605 84.8732 205.131 83.9909 206.658C81.7393 210.546 79.3632 214.326 77.1409 217.852C71.2318 227.192 66.3662 234.351 66.3662 234.351C66.0184 234.969 65.2349 235.187 64.6161 234.823C64.001 234.496 63.7814 233.733 64.1292 233.116C64.1292 233.116 67.783 225.265 72.7878 215.416C74.666 211.709 76.7125 207.712 78.8909 203.823C79.744 202.26 80.6483 200.77 81.5452 199.28C82.9365 196.954 84.3241 194.701 85.686 192.593C91.6353 183.253 96.5193 176.093 96.5193 176.093Z"
        fill="#262D37" />
    <path fill-rule="evenodd" clip-rule="evenodd"
        d="M99.3933 147.091C99.8326 146.546 100.642 146.437 101.195 146.873C101.747 147.309 101.839 148.109 101.4 148.654C101.4 148.654 95.1537 157.595 86.8905 168.788C85.0013 171.369 82.9878 174.022 80.9119 176.711C79.5792 178.455 78.2283 180.2 76.8297 181.908C73.2601 186.305 69.5807 190.594 66.1575 194.555C57.0438 205.095 49.69 213.163 49.69 213.163C49.2492 213.708 48.4412 213.781 47.8869 213.345C47.333 212.909 47.2411 212.109 47.6823 211.564C47.6823 211.564 53.9458 202.66 62.2437 191.466C65.3594 187.25 68.7459 182.744 72.2496 178.31C73.6225 176.565 75.0394 174.857 76.4416 173.186C78.6237 170.569 80.7838 168.025 82.8743 165.626C92.0234 155.123 99.3933 147.091 99.3933 147.091Z"
        fill="#262D37" />
    <path fill-rule="evenodd" clip-rule="evenodd"
        d="M146.798 180.927C146.355 181.472 145.549 181.544 144.996 181.108C144.444 180.672 144.356 179.873 144.799 179.328C149.452 173.113 154.772 168.752 161.01 167.262C166.187 165.99 172.012 166.717 178.69 170.06C181.696 163.991 185.851 158.721 190.805 154.578C196.754 149.599 203.798 146.183 210.974 144.656C225.644 141.494 240.988 146.037 249.804 161.083C250.181 161.665 249.998 162.464 249.397 162.828C248.797 163.228 248.003 163.046 247.629 162.428C238.927 149.563 225.15 146.364 212.204 149.744C205.91 151.38 199.855 154.614 194.576 159.012C189.552 163.228 185.181 168.425 182.27 174.676C181.963 175.366 181.373 175.875 180.656 176.093C179.935 176.311 179.155 176.202 178.514 175.839C172.25 171.659 166.78 170.315 161.823 171.151C156.222 172.132 151.323 175.73 146.798 180.927Z"
        fill="#262D37" />
</svg>
