<svg width="201" height="256" viewBox="0 0 201 256" fill="none" xmlns="http://www.w3.org/2000/svg">
    <g clip-path="url(#clip0_55_8817)">
        <path fill-rule="evenodd" clip-rule="evenodd"
            d="M101.174 40.0012C137.663 39.8637 176.247 51.6417 188.911 85.7741C203.027 123.82 189.65 166.667 157.287 191.24C122.495 217.657 74.0686 225.612 38.935 199.649C4.61029 174.284 -0.0287337 126.139 15.4529 86.4276C28.4802 53.0112 65.2268 40.1366 101.174 40.0012Z" fill="#FFF6EB" />
        <path
            d="M75.8429 201.124C75.4788 201.09 75.1162 201.203 74.8348 201.438C74.5535 201.674 74.3763 202.013 74.3424 202.38C74.3424 202.38 74.2519 203.306 74.7075 204.264C75.163 205.223 76.2873 206.24 78.0009 206.508C78.3623 206.564 78.7311 206.473 79.0262 206.255C79.3214 206.038 79.5186 205.71 79.5747 205.346C79.6306 204.981 79.5406 204.609 79.3247 204.311C79.1087 204.014 78.7844 203.815 78.423 203.758C77.4374 203.604 77.3129 203.309 77.1951 203.061C77.0773 202.813 77.0888 202.638 77.0888 202.638C77.1056 202.456 77.0867 202.273 77.0332 202.098C76.9796 201.923 76.8925 201.761 76.7768 201.62C76.6611 201.48 76.5191 201.364 76.3588 201.278C76.1986 201.193 76.0233 201.14 75.8429 201.124Z"
            fill="#262D37" />
        <path
            d="M143.282 14.0726C142.241 14.0726 135.913 14.2605 126.604 14.5439C117.295 14.8273 105.172 15.2071 93.071 15.5925C80.9706 15.9779 68.8934 16.3685 59.6785 16.6744C55.071 16.8273 51.1794 16.9593 48.3571 17.0584C45.5347 17.1575 43.8922 17.2156 43.4148 17.2486C38.9635 17.5549 35.5577 18.2671 33.2084 20.693C30.8591 23.119 29.9034 26.8824 29.6376 32.6779C29.5929 33.6583 29.66 36.2283 29.7913 40.4462C29.9224 44.6641 30.1267 50.4002 30.3846 57.2482C30.9004 70.9441 31.6314 89.0859 32.4231 108.398C32.4305 108.581 32.4735 108.76 32.5496 108.926C32.6258 109.092 32.7336 109.241 32.8668 109.364C33.0001 109.488 33.1562 109.584 33.3263 109.647C33.4964 109.71 33.6771 109.739 33.8581 109.731C34.2236 109.716 34.5681 109.555 34.8158 109.283C35.0636 109.012 35.1942 108.652 35.1791 108.283C34.3875 88.9726 33.6562 70.8316 33.1406 57.1421C32.8828 50.2974 32.6793 44.5654 32.5486 40.359C32.4178 36.1525 32.3692 33.342 32.3936 32.8057C32.6474 27.2716 33.5894 24.2815 35.1821 22.6369C36.7748 20.9922 39.3554 20.3159 43.604 20.0236C43.7761 20.0118 45.634 19.9372 48.4532 19.8382C51.2723 19.7392 55.1627 19.6077 59.7691 19.4548C68.9821 19.1489 81.0586 18.7577 93.1581 18.3723C105.258 17.987 117.38 17.6077 126.687 17.3243C135.994 17.041 142.649 16.8543 143.282 16.8543C145.374 16.8543 146.984 17.3795 148.086 18.3669C149.189 19.3542 149.912 20.8671 149.995 23.3074C150.001 23.4901 150.043 23.6698 150.118 23.8361C150.193 24.0025 150.3 24.1522 150.432 24.2769C150.565 24.4017 150.72 24.4988 150.89 24.5629C151.06 24.6269 151.24 24.6567 151.421 24.6504C151.787 24.6378 152.132 24.4791 152.382 24.2094C152.632 23.9397 152.765 23.5811 152.752 23.2123C152.651 20.225 151.653 17.8398 149.918 16.2855C148.182 14.7311 145.839 14.0714 143.282 14.0714V14.0726ZM188.073 168.924C187.222 168.909 186.326 168.964 185.386 169.095C167.181 171.64 116.416 179.842 93.6787 182.571C89.0806 183.123 85.9727 184.275 83.8482 186.011C81.7238 187.747 80.72 190.035 80.2239 192.363C79.8473 194.135 79.7054 197.063 79.6373 200.795C79.6305 201.164 79.7693 201.521 80.0231 201.786C80.2769 202.052 80.6249 202.205 80.9906 202.212C81.3564 202.219 81.7098 202.079 81.9732 201.823C82.2365 201.567 82.3883 201.215 82.3951 200.847C82.4622 197.173 82.6583 194.185 82.9211 192.947C83.3412 190.977 84.0271 189.448 85.5853 188.174C87.1438 186.9 89.7126 185.85 94.0053 185.335C116.908 182.586 167.668 174.382 185.765 171.852C189.003 171.4 191.3 172.01 192.865 173.098C194.43 174.185 195.327 175.789 195.609 177.617C195.597 177.541 195.633 177.852 195.663 178.231C195.692 178.61 195.729 179.134 195.774 179.779C195.862 181.069 195.977 182.846 196.109 184.951C196.372 189.16 196.703 194.68 197.026 200.259C197.348 205.838 197.661 211.478 197.889 215.925C198.117 220.372 198.253 223.782 198.24 224.362C198.21 225.722 197.829 226.48 197.194 227.033C196.558 227.586 195.525 227.963 194.053 228.031C169.756 229.146 155.671 232.371 155.28 232.462C155.163 232.467 114.246 234.316 83.1727 235.643C83.1275 234.649 82.9758 231.419 82.7818 225.72C82.7693 225.351 82.612 225.002 82.3447 224.75C82.0774 224.499 81.7219 224.364 81.3564 224.377C81.1753 224.383 80.9972 224.425 80.8324 224.501C80.6675 224.577 80.519 224.684 80.3953 224.818C80.2717 224.951 80.1754 225.108 80.1119 225.279C80.0484 225.451 80.0189 225.633 80.0252 225.815C80.2194 231.523 80.371 234.752 80.4166 235.757C64.6259 236.426 51.1757 236.965 49.1299 236.965C45.4008 236.965 43.2363 235.463 41.8128 233.353C40.3896 231.243 39.827 228.422 39.8962 226.09V226.087C39.9155 225.469 39.8685 224.018 39.7833 221.482C39.6981 218.945 39.5689 215.446 39.4032 211.167C39.0719 202.609 38.5968 190.934 38.048 177.617C38.0405 177.434 37.9974 177.255 37.9212 177.089C37.845 176.923 37.7372 176.774 37.6039 176.65C37.4705 176.527 37.3143 176.431 37.1442 176.368C36.9741 176.305 36.7934 176.277 36.6124 176.284C36.2469 176.3 35.9025 176.461 35.6548 176.732C35.4072 177.004 35.2767 177.364 35.292 177.733C35.8407 191.048 36.3154 202.723 36.6466 211.276C36.8121 215.552 36.9418 219.048 37.0267 221.576C37.1115 224.103 37.1458 225.785 37.139 226.001C37.139 226.002 37.139 226.003 37.139 226.004C37.0547 228.831 37.6739 232.163 39.5329 234.918C41.392 237.674 44.6106 239.747 49.1299 239.747C51.6916 239.747 65.1541 239.197 81.9075 238.484C113.235 237.15 155.507 235.236 155.507 235.236C155.59 235.232 155.674 235.221 155.756 235.202C155.756 235.202 169.735 231.932 194.179 230.81C196.052 230.724 197.733 230.237 198.994 229.14C200.255 228.043 200.954 226.364 200.997 224.424C201.021 223.354 200.872 220.238 200.643 215.78C200.415 211.323 200.102 205.68 199.779 200.097C199.457 194.513 199.125 188.991 198.861 184.775C198.729 182.667 198.614 180.887 198.525 179.586C198.48 178.936 198.443 178.406 198.412 178.012C198.382 177.618 198.373 177.439 198.335 177.189C197.95 174.697 196.647 172.348 194.43 170.807C192.767 169.651 190.626 168.971 188.073 168.925L188.073 168.924Z"
            fill="#262D37" />
        <mask id="mask0_55_8817" style="mask-type:luminance" maskUnits="userSpaceOnUse" x="-527" y="-1313" width="764" height="4072">
            <path d="M236.515 2758.09L236.515 -1312.79H-526.005L-526.005 2758.09H236.515Z" fill="white" />
        </mask>
        <g mask="url(#mask0_55_8817)">
            <path fill-rule="evenodd" clip-rule="evenodd"
                d="M78.9866 225.224C78.9866 225.224 67.5626 236.625 66.3728 237.302C65.1861 237.978 60.4948 238.747 56.2 233.859C54.4815 231.905 54.4938 229.771 56.4429 227.222C57.3406 226.046 61.7891 220.727 61.7891 220.727C59.5203 214.521 64.6236 208.343 70.4462 207.288C72.6167 205.986 82.8172 199.643 84.4158 198.834C85.9898 198.033 88.6398 197.36 92.0523 200.676C94.9206 203.467 94.152 206.361 92.2337 209.19C91.6557 210.042 84.5357 218.255 84.5357 218.255C84.3051 219.347 83.8317 220.473 83.0662 221.611C83.0662 221.611 84.9599 222.951 84.259 223.835C83.5581 224.722 82.4052 225.981 81.901 225.959C81.3938 225.941 80.0011 224.719 80.0011 224.719C79.6876 224.902 79.3463 225.072 78.9866 225.224Z"
                fill="#FFAA4D" />
        </g>
        <path
            d="M17.5368 106.758C13.7388 106.755 10.5791 106.793 8.29719 106.864C4.24289 106.989 0.015125 110.776 0.27524 116.724C0.292456 117.114 0.251256 120.128 0.185773 124.245C0.120322 128.363 0.0405118 133.756 0.0116443 139.497C-0.0460906 150.977 0.0857517 163.783 0.983165 170.779C1.40041 174.03 2.67035 176.362 4.56002 177.764C6.44968 179.165 8.78458 179.601 11.2063 179.643C11.6365 179.649 12.902 179.618 15.2978 179.567C17.6936 179.516 21.0327 179.441 25.0034 179.348C32.9449 179.162 43.4137 178.905 53.9172 178.628C64.4208 178.351 74.9586 178.055 83.04 177.789C87.0807 177.656 90.5062 177.531 93.0122 177.42C94.2652 177.364 95.2878 177.312 96.0493 177.263C96.8107 177.215 97.1514 177.218 97.6554 177.102C100.153 176.526 102.336 175.255 103.891 173.58C105.446 171.904 106.401 169.762 106.162 167.532C106.123 167.165 105.941 166.829 105.656 166.598C105.371 166.367 105.006 166.259 104.643 166.298C104.279 166.338 103.946 166.522 103.717 166.809C103.487 167.097 103.381 167.464 103.42 167.831C103.553 169.072 103.02 170.447 101.877 171.678C100.735 172.909 99.0102 173.935 97.0406 174.389C97.2138 174.349 96.6045 174.439 95.8745 174.486C95.1446 174.532 94.134 174.584 92.8909 174.64C90.4047 174.75 86.985 174.875 82.9499 175.007C74.8798 175.273 64.3454 175.569 53.8452 175.846C43.3449 176.122 32.8779 176.379 24.9391 176.565C20.9697 176.658 17.6325 176.733 15.2395 176.785C12.8473 176.836 11.2127 176.86 11.2514 176.86C9.13554 176.824 7.4157 176.429 6.19263 175.522C4.96968 174.614 4.06898 173.159 3.71759 170.422C2.87195 163.829 2.71134 150.957 2.76889 139.511C2.79779 133.788 2.87763 128.406 2.94302 124.291C3.00844 120.176 3.06977 117.502 3.03008 116.601C2.82939 112.005 5.97312 109.72 8.38065 109.646C17.3113 109.368 40.5299 109.622 62.3552 110.763C73.2679 111.333 83.8459 112.126 92.1175 113.177C96.2533 113.703 99.8152 114.295 102.524 114.943C105.233 115.592 107.124 116.416 107.631 116.862C107.767 116.982 107.926 117.074 108.097 117.132C108.269 117.191 108.451 117.214 108.631 117.202C108.812 117.19 108.989 117.141 109.151 117.06C109.313 116.979 109.458 116.866 109.577 116.728C109.696 116.591 109.787 116.431 109.845 116.258C109.903 116.084 109.926 115.901 109.914 115.719C109.902 115.537 109.854 115.359 109.773 115.195C109.693 115.031 109.581 114.885 109.445 114.765C108.095 113.577 106.03 112.922 103.161 112.236C100.292 111.549 96.6578 110.95 92.4628 110.416C84.0728 109.35 73.4505 108.556 62.4982 107.984C46.0696 107.125 28.9292 106.765 17.535 106.759L17.5368 106.758Z"
            fill="#262D37" />
        <path
            d="M126.889 151.868C126.528 151.927 126.205 152.128 125.991 152.427C125.776 152.726 125.689 153.099 125.747 153.463C125.805 153.827 126.005 154.153 126.301 154.37C126.301 154.37 127.007 154.846 128.005 155.027C129.003 155.208 130.412 155.175 132.128 154.534C132.298 154.47 132.454 154.374 132.587 154.249C132.72 154.125 132.827 153.976 132.903 153.81C132.978 153.644 133.021 153.464 133.028 153.282C133.034 153.099 133.006 152.917 132.943 152.746C132.88 152.574 132.784 152.417 132.661 152.283C132.538 152.149 132.39 152.041 132.225 151.964C132.06 151.888 131.882 151.845 131.701 151.838C131.52 151.831 131.34 151.861 131.17 151.924C129.874 152.409 129.012 152.382 128.493 152.288C127.974 152.194 127.916 152.114 127.916 152.114C127.769 152.007 127.603 151.93 127.427 151.888C127.251 151.845 127.068 151.839 126.889 151.868Z"
            fill="#262D37" />
        <mask id="mask1_55_8817" style="mask-type:luminance" maskUnits="userSpaceOnUse" x="-527" y="-1313" width="764" height="4072">
            <path d="M236.515 2758.09L236.515 -1312.79H-526.005L-526.005 2758.09H236.515Z" fill="white" />
        </mask>
        <g mask="url(#mask1_55_8817)">
            <path fill-rule="evenodd" clip-rule="evenodd"
                d="M124.354 122.146C124.695 127.623 123.37 133.808 120.582 137.979C125.839 136.506 129.23 136.549 129.23 141.502C129.23 143.54 128.765 163.129 128.418 164.888C128.068 166.646 124.471 168.864 115.263 170.151C108.506 171.094 101.659 170.526 101.045 168.687C99.7718 164.881 97.1403 148.655 97.3647 145.234C97.4846 143.385 100.866 141.763 104.761 141.093C99.9809 131.057 99.572 123.833 100.762 120.214C102.822 113.936 112.721 106.332 119.838 111.437C120.176 111.682 120.499 111.958 120.8 112.262C121.2 110.053 126.02 103.06 131.443 110.819C136.079 117.457 130.287 123.135 124.354 122.146Z"
                fill="#FFAA4D" />
        </g>
        <mask id="mask2_55_8817" style="mask-type:luminance" maskUnits="userSpaceOnUse" x="-527" y="-1313" width="764" height="4072">
            <path d="M236.515 2758.09L236.515 -1312.79H-526.005L-526.005 2758.09H236.515Z" fill="white" />
        </mask>
        <g mask="url(#mask2_55_8817)">
            <path fill-rule="evenodd" clip-rule="evenodd"
                d="M153.021 87.5986C150.503 88.5446 149.898 87.0124 149.673 85.5268C149.452 84.0412 149.415 78.4337 150.746 77.6955C153.424 76.2099 171.049 72.2989 176.223 72.4292C178.901 72.4943 178.144 76.0797 178.052 81.0731C178.037 81.9725 177.609 83.5387 174.037 83.6286C168.685 83.762 155.754 86.572 153.021 87.5986Z"
                fill="#FFAA4D" />
        </g>
        <mask id="mask3_55_8817" style="mask-type:luminance" maskUnits="userSpaceOnUse" x="-527" y="-1313" width="764" height="4072">
            <path d="M236.515 2758.09L236.515 -1312.79H-526.005L-526.005 2758.09H236.515Z" fill="white" />
        </mask>
        <g mask="url(#mask3_55_8817)">
            <path fill-rule="evenodd" clip-rule="evenodd"
                d="M161.816 226.198C159.298 227.144 158.692 225.612 158.468 224.126C158.246 222.641 158.21 217.033 159.541 216.295C162.218 214.809 179.843 210.898 185.017 211.029C187.695 211.094 186.939 214.679 186.847 219.672C186.831 220.572 186.404 222.138 182.831 222.228C177.479 222.361 164.549 225.171 161.816 226.198Z"
                fill="#FFAA4D" />
        </g>
        <mask id="mask4_55_8817" style="mask-type:luminance" maskUnits="userSpaceOnUse" x="-527" y="-1313" width="764" height="4072">
            <path d="M236.515 2758.09L236.515 -1312.79H-526.005L-526.005 2758.09H236.515Z" fill="white" />
        </mask>
        <g mask="url(#mask4_55_8817)">
            <path fill-rule="evenodd" clip-rule="evenodd"
                d="M24.0161 168.501C21.3925 169.086 21.0033 167.484 20.9852 165.981C20.9701 164.479 21.7042 158.92 23.1239 158.376C25.9799 157.279 43.972 155.871 49.0782 156.723C51.7211 157.162 50.4794 160.607 49.7019 165.54C49.5631 166.428 48.9247 167.92 45.3745 167.509C40.0555 166.892 26.8638 167.867 24.0161 168.501Z"
                fill="#FFAA4D" />
        </g>
        <path
            d="M184.794 15.4113C183.756 15.3766 182.653 15.468 181.497 15.6918C168.799 18.1522 150.778 21.9486 135.639 25.1641C128.07 26.7718 121.221 28.2342 116.125 29.3105C113.577 29.8486 111.467 30.2905 109.927 30.605C108.386 30.9195 107.278 31.1186 107.231 31.1241C104.402 31.4457 102.333 32.0757 100.796 32.9941C99.2577 33.9127 98.282 35.1638 97.7911 36.4609C96.8091 39.0551 97.4867 41.6526 97.4704 43.0449C97.4683 43.2276 97.5018 43.4089 97.5692 43.5786C97.6365 43.7482 97.7363 43.9029 97.8629 44.0336C97.9895 44.1644 98.1403 44.2685 98.3068 44.3405C98.4734 44.4124 98.6523 44.4505 98.8334 44.4527C99.0146 44.4548 99.1943 44.421 99.3625 44.353C99.5306 44.2851 99.6839 44.1843 99.8135 44.0567C99.9431 43.929 100.046 43.7768 100.118 43.6088C100.189 43.4408 100.227 43.2603 100.229 43.0776C100.253 41.0366 99.7938 38.9707 100.368 37.4531C100.655 36.6943 101.131 36.0277 102.201 35.3887C103.271 34.7497 104.966 34.182 107.541 33.8894C107.542 33.8894 107.543 33.8894 107.544 33.8894C108.069 33.829 108.923 33.6496 110.475 33.3327C112.027 33.0158 114.141 32.5733 116.692 32.0346C121.793 30.9572 128.641 29.4949 136.208 27.8876C151.343 24.6729 169.362 20.8767 182.018 18.4244C185.984 17.6572 188.327 18.5442 189.933 20.6554C191.539 22.7666 192.356 26.4517 192.146 31.3289C192.095 32.5098 191.459 44.1922 190.855 56.0427C190.552 61.9679 190.257 67.9547 190.044 72.7459C189.83 77.5371 189.694 81.0342 189.725 82.3405C189.77 84.2102 189.138 85.3944 187.89 86.3658C186.642 87.3372 184.674 88.004 182.229 88.2346C180.98 88.3523 176.965 89.0479 170.945 90.1221C164.924 91.1964 157.095 92.6341 148.892 94.1819C132.487 97.2776 114.627 100.802 106.666 102.758C104.329 103.332 102.79 102.95 101.748 102.101C100.706 101.252 100.037 99.7799 99.9588 97.7238C99.8159 93.9676 99.9751 84.6824 99.9751 84.6824C99.9815 84.3136 99.8425 83.9573 99.5886 83.6918C99.3347 83.4264 98.9867 83.2734 98.6211 83.2667C98.2554 83.2601 97.902 83.4002 97.6387 83.6564C97.3755 83.9126 97.2239 84.2638 97.2172 84.6327C97.2172 84.6327 97.0505 93.8267 97.2028 97.8304C97.3028 100.458 98.2113 102.797 100.016 104.267C101.82 105.736 104.397 106.179 107.318 105.462C115.096 103.551 133.01 100.01 149.399 96.9175C157.593 95.3713 165.416 93.9341 171.424 92.862C177.433 91.7899 181.826 91.0675 182.486 91.0053C185.27 90.7427 187.73 90.0051 189.575 88.5689C191.419 87.1328 192.546 84.907 192.483 82.2733C192.46 81.3263 192.586 77.6506 192.798 72.8707C193.011 68.0908 193.307 62.1077 193.609 56.1856C194.213 44.3415 194.842 32.8191 194.901 31.4506C195.127 26.2169 194.359 21.905 192.121 18.9623C190.442 16.7553 187.909 15.5156 184.795 15.4113H184.794Z"
            fill="#262D37" />
        <path
            d="M75.316 48.1626C75.1351 48.1724 74.9579 48.2181 74.7945 48.297C74.6311 48.3759 74.4847 48.4864 74.3637 48.6224C74.2426 48.7584 74.1493 48.917 74.089 49.0893C74.0288 49.2616 74.0028 49.4443 74.0125 49.6268C74.0222 49.8092 74.0674 49.988 74.1456 50.1529C74.2238 50.3177 74.3334 50.4654 74.4681 50.5875C74.4681 50.5875 76.1283 52.091 78.6364 52.091C79.0022 52.091 79.3531 51.9444 79.6117 51.6835C79.8704 51.4225 80.0157 51.0686 80.0157 50.6996C80.0156 50.3305 79.8703 49.9766 79.6117 49.7157C79.353 49.4547 79.0022 49.3081 78.6364 49.3081C77.1849 49.3081 76.3115 48.517 76.3115 48.517C76.1768 48.3949 76.0195 48.3007 75.8487 48.2399C75.6779 48.1791 75.4968 48.1529 75.316 48.1626Z"
            fill="#262D37" />
        <mask id="mask5_55_8817" style="mask-type:luminance" maskUnits="userSpaceOnUse" x="-527" y="-1313" width="764" height="4072">
            <path d="M236.515 2758.09L236.515 -1312.79H-526.005L-526.005 2758.09H236.515Z" fill="white" />
        </mask>
        <g mask="url(#mask5_55_8817)">
            <path fill-rule="evenodd" clip-rule="evenodd"
                d="M119.001 69.7434C119.05 69.731 119.1 69.7185 119.149 69.703C122.583 68.8346 123.911 69.9976 123.948 71.6941C123.991 73.8869 124.972 81.2467 122.029 81.8236C105.318 85.0864 89.5897 95.2717 84.1236 100.392C81.7872 102.579 78.3655 98.1313 77.1604 95.4299C76.5486 94.0528 77.2679 92.3656 79.2601 90.2225C72.1247 74.5476 69.2441 49.4131 85.4917 42.6829C108.746 33.0435 117.713 63.6986 119.001 69.7434Z"
                fill="#FFAA4D" />
        </g>
        <path
            d="M174.642 30.839C161.856 32.9441 121.69 43.2601 121.69 43.2601C121.514 43.3051 121.349 43.3846 121.204 43.4939C121.059 43.6032 120.937 43.7403 120.844 43.8973C120.751 44.0544 120.69 44.2284 120.664 44.4092C120.638 44.5901 120.648 44.7743 120.693 44.9514C120.737 45.1285 120.816 45.295 120.924 45.4414C121.033 45.5879 121.169 45.7113 121.324 45.8047C121.48 45.8982 121.652 45.9598 121.832 45.986C122.011 46.0122 122.194 46.0025 122.369 45.9575C122.369 45.9575 162.817 35.6054 175.086 33.5855C175.447 33.526 175.77 33.3243 175.984 33.0247C176.197 32.7251 176.284 32.3523 176.225 31.9881C176.166 31.6239 175.967 31.2982 175.67 31.0826C175.373 30.8671 175.003 30.7795 174.642 30.839Z"
            fill="#262D37" />
        <path
            d="M154.833 48.5568C139.266 52.2151 121.69 56.723 121.69 56.723C121.515 56.768 121.349 56.8475 121.204 56.9568C121.059 57.0662 120.937 57.2033 120.844 57.3604C120.751 57.5176 120.69 57.6915 120.664 57.8725C120.639 58.0534 120.648 58.2378 120.693 58.4149C120.737 58.592 120.816 58.7586 120.925 58.905C121.033 59.0514 121.169 59.1747 121.325 59.2681C121.481 59.3615 121.653 59.4231 121.832 59.4492C122.012 59.4754 122.194 59.4656 122.37 59.4205C122.37 59.4205 139.932 54.9157 155.459 51.2669C155.815 51.1832 156.124 50.9603 156.317 50.647C156.51 50.3336 156.572 49.9557 156.489 49.5963C156.406 49.2369 156.185 48.9254 155.874 48.7305C155.564 48.5355 155.189 48.4731 154.833 48.5568Z"
            fill="#262D37" />
        <path
            d="M154.828 60.4265C140.132 63.9256 124.822 67.8507 124.822 67.8507C124.646 67.8956 124.481 67.975 124.336 68.0843C124.191 68.1937 124.069 68.3309 123.976 68.4879C123.884 68.645 123.822 68.8189 123.796 68.9998C123.771 69.1806 123.78 69.3648 123.825 69.5419C123.869 69.7191 123.948 69.8856 124.056 70.032C124.165 70.1784 124.301 70.3019 124.456 70.3953C124.612 70.4887 124.784 70.5504 124.964 70.5766C125.143 70.6028 125.326 70.5931 125.501 70.5481C125.501 70.5481 140.798 66.6264 155.462 63.1348C155.818 63.0501 156.126 62.8261 156.318 62.5123C156.511 62.1984 156.572 61.8203 156.488 61.4611C156.446 61.2832 156.37 61.1154 156.264 60.9671C156.158 60.8188 156.025 60.6931 155.87 60.597C155.716 60.5009 155.545 60.4363 155.366 60.4071C155.187 60.3778 155.004 60.3844 154.828 60.4265Z"
            fill="#262D37" />
        <path
            d="M91.3868 40.8775C89.3208 40.7375 87.2416 41.1636 85.2532 42.1859H85.2502C85.0673 42.2783 84.9053 42.3749 84.7602 42.4664C84.7592 42.4664 84.7581 42.4664 84.7571 42.4664C81.109 44.7752 78.7315 50.645 78.0519 58.4457C77.3723 66.2464 78.6118 76.0407 83.2518 86.1404C83.4056 86.4752 83.685 86.7347 84.0284 86.8617C84.3719 86.9888 84.7513 86.9729 85.0831 86.8177C85.415 86.6625 85.6722 86.3806 85.7981 86.0341C85.924 85.6876 85.9082 85.3049 85.7544 84.9701C81.3222 75.3226 80.1634 65.992 80.7995 58.6892C81.4356 51.3883 84.0867 46.1771 86.221 44.8246C86.3203 44.762 86.409 44.7109 86.4828 44.6737C86.4864 44.6719 86.49 44.67 86.4935 44.6681C90.7588 42.4703 95.0183 43.4633 99.0945 48.0283C103.171 52.5933 106.742 60.8584 108.494 72.7015C108.521 72.8822 108.582 73.0559 108.676 73.2126C108.769 73.3693 108.892 73.5058 109.037 73.6145C109.183 73.7233 109.348 73.802 109.524 73.8462C109.7 73.8905 109.882 73.8994 110.062 73.8724C110.423 73.8178 110.749 73.6205 110.966 73.3239C111.184 73.0273 111.276 72.6557 111.222 72.2908C109.417 60.0942 105.78 51.3579 101.144 46.1656C98.2461 42.9204 94.8325 41.1098 91.383 40.8761L91.3868 40.8775Z"
            fill="#262D37" />
        <path
            d="M85.8697 42.3089C85.6955 42.2588 85.5132 42.2438 85.3332 42.2648C85.1532 42.2858 84.9791 42.3424 84.8207 42.4313C84.5011 42.6107 84.2653 42.911 84.1651 43.2658C84.0649 43.6207 84.1085 44.0012 84.2863 44.3237C84.2863 44.3237 92.4294 59.1105 95.2379 78.2898C95.2914 78.6548 95.4865 78.9834 95.7801 79.2033C96.0738 79.4232 96.442 79.5165 96.8038 79.4626C97.1656 79.4085 97.4913 79.2117 97.7093 78.9154C97.9273 78.6192 98.0197 78.2478 97.9663 77.8828C95.0751 58.1384 86.6971 42.971 86.6971 42.971C86.6091 42.8112 86.4907 42.6706 86.3487 42.557C86.2068 42.4434 86.044 42.359 85.8697 42.3089Z"
            fill="#262D37" />
        <path
            d="M118.813 68.3536C112.56 69.9401 106.015 72.2 99.846 74.9963C99.6807 75.0712 99.5317 75.1782 99.4074 75.3112C99.2832 75.4441 99.1861 75.6006 99.1217 75.7714C99.0574 75.9422 99.0271 76.1242 99.0324 76.3069C99.0378 76.4896 99.0788 76.6693 99.153 76.836C99.2273 77.0027 99.3333 77.153 99.4651 77.2784C99.5969 77.4037 99.7519 77.5016 99.9213 77.5666C100.091 77.6315 100.271 77.6621 100.452 77.6567C100.633 77.6513 100.811 77.61 100.977 77.5351C106.987 74.8107 113.392 72.5982 119.485 71.0522C119.661 71.0077 119.826 70.9287 119.972 70.8198C120.117 70.7108 120.24 70.5739 120.333 70.4171C120.426 70.2602 120.487 70.0865 120.514 69.9057C120.54 69.7249 120.531 69.5406 120.487 69.3634C120.398 69.0055 120.171 68.6982 119.857 68.5088C119.543 68.3194 119.168 68.2635 118.813 68.3536ZM97.0383 76.7664C96.8664 76.7086 96.6849 76.6855 96.5042 76.6985C96.3235 76.7115 96.1471 76.7603 95.9851 76.8421C89.3999 80.167 83.4337 84.103 78.9607 88.5387C78.6999 88.7974 78.5516 89.15 78.5484 89.519C78.5452 89.8879 78.6875 90.243 78.9438 90.5062C79.2002 90.7693 79.5497 90.9188 79.9154 90.922C80.2811 90.9252 80.6331 90.7819 80.894 90.5233C85.0719 86.3803 90.819 82.5623 97.2195 79.3307C97.5466 79.1655 97.7952 78.8759 97.9108 78.5258C98.0263 78.1757 97.9992 77.7937 97.8356 77.4637C97.6719 77.1339 97.3852 76.8829 97.0383 76.7664Z"
            fill="#262D37" />
        <path
            d="M80.8964 86.8811C80.5498 86.9986 80.2636 87.2501 80.1008 87.5804C79.938 87.9108 79.9119 88.2929 80.0282 88.6426C80.0282 88.6426 80.5101 90.0937 81.2945 91.7986C82.079 93.5036 83.0961 95.485 84.6024 96.7665C84.7409 96.8843 84.901 96.9734 85.0736 97.0288C85.2463 97.0841 85.428 97.1046 85.6085 97.089C85.789 97.0735 85.9647 97.0222 86.1256 96.9382C86.2864 96.8542 86.4293 96.739 86.546 96.5993C86.7817 96.3172 86.8967 95.9522 86.8657 95.5846C86.8347 95.217 86.6604 94.8769 86.3809 94.639C85.5723 93.9511 84.5116 92.1811 83.7966 90.6271C83.0816 89.0731 82.6431 87.757 82.6431 87.757C82.5854 87.5838 82.4945 87.4236 82.3755 87.2859C82.2565 87.1481 82.1118 87.0354 81.9496 86.9541C81.7874 86.8727 81.6109 86.8244 81.4302 86.8119C81.2495 86.7993 81.0681 86.8229 80.8964 86.8811Z"
            fill="#262D37" />
        <path
            d="M90.1042 80.1634C89.9277 80.2044 89.7609 80.2801 89.6134 80.3862C89.4659 80.4922 89.3405 80.6265 89.2444 80.7814C89.1483 80.9363 89.0835 81.1087 89.0535 81.2889C89.0235 81.4691 89.029 81.6536 89.0696 81.8317C89.0696 81.8317 89.4073 83.3162 90.0099 85.0743C90.6125 86.8324 91.4006 88.8727 92.7395 90.2687C92.9938 90.5339 93.3422 90.6864 93.7079 90.6926C94.0737 90.6987 94.4268 90.5579 94.6898 90.3014C94.9527 90.0448 95.1038 89.6934 95.1099 89.3244C95.116 88.9555 94.9765 88.5991 94.7222 88.3339C94.0383 87.6208 93.1673 85.7705 92.617 84.165C92.0668 82.5596 91.7578 81.2077 91.7578 81.2077C91.7172 81.0296 91.6422 80.8613 91.5372 80.7124C91.4321 80.5635 91.299 80.4369 91.1454 80.34C90.9919 80.243 90.8209 80.1775 90.6422 80.1472C90.4635 80.1169 90.2807 80.1224 90.1042 80.1634Z"
            fill="#262D37" />
        <path
            d="M104.283 73.4825C103.938 73.3582 103.559 73.3769 103.228 73.5346C102.898 73.6923 102.643 73.9761 102.519 74.3235C102.396 74.6709 102.414 75.0534 102.571 75.387C102.571 75.387 103.259 76.8566 103.99 78.6606C104.72 80.4645 105.478 82.6795 105.61 83.7102C105.633 83.8914 105.692 84.0664 105.782 84.2249C105.872 84.3835 105.992 84.5225 106.135 84.6341C106.279 84.7458 106.443 84.8279 106.617 84.8757C106.792 84.9234 106.975 84.936 107.155 84.9126C107.517 84.8654 107.847 84.6746 108.07 84.3824C108.293 84.0902 108.393 83.7206 108.346 83.3546C108.127 81.6435 107.305 79.4883 106.543 77.6078C105.781 75.7272 105.064 74.1979 105.064 74.1979C104.908 73.8643 104.627 73.607 104.283 73.4825Z"
            fill="#262D37" />
        <path
            d="M113.811 70.0423C113.467 69.916 113.088 69.9326 112.757 70.0883C112.592 70.1655 112.445 70.2744 112.322 70.4091C112.2 70.5437 112.105 70.7014 112.043 70.8731C111.981 71.0448 111.953 71.2271 111.961 71.4097C111.969 71.5922 112.012 71.7715 112.088 71.9371C112.088 71.9371 114.054 76.3013 114.245 80.3881C114.254 80.5706 114.298 80.7496 114.375 80.9149C114.452 81.0803 114.561 81.2287 114.695 81.3517C114.829 81.4746 114.985 81.5697 115.156 81.6315C115.326 81.6934 115.507 81.7209 115.688 81.7123C115.869 81.7036 116.046 81.6591 116.21 81.5813C116.374 81.5034 116.521 81.3939 116.643 81.2587C116.765 81.1235 116.859 80.9654 116.921 80.7935C116.982 80.6215 117.009 80.4391 117.001 80.2566C116.773 75.3925 114.589 70.7625 114.589 70.7625C114.513 70.5968 114.405 70.4479 114.271 70.3243C114.138 70.2007 113.981 70.1049 113.811 70.0423Z"
            fill="#262D37" />
        <path
            d="M76.124 43.0778C74.9737 43.0116 74.1257 43.2044 74.1257 43.2044C73.9485 43.2424 73.7805 43.3151 73.6312 43.4185C73.4819 43.522 73.3542 43.6542 73.2555 43.8074C73.1568 43.9607 73.0891 44.1319 73.056 44.3116C73.0229 44.4913 73.0253 44.6758 73.0629 44.8545C73.1005 45.0333 73.1727 45.2027 73.2752 45.3533C73.3778 45.504 73.5087 45.6328 73.6606 45.7324C73.8125 45.832 73.9823 45.9003 74.1604 45.9337C74.3385 45.967 74.5213 45.9646 74.6985 45.9267C74.6985 45.9267 75.7118 45.7296 76.7568 45.9636C77.8019 46.1976 78.7026 46.5929 79.089 48.4139C79.1268 48.5927 79.1992 48.7622 79.302 48.9126C79.4048 49.0631 79.536 49.1917 79.688 49.2911C79.8401 49.3904 80.01 49.4585 80.1882 49.4916C80.3664 49.5247 80.5492 49.522 80.7264 49.4837C81.0841 49.4064 81.3966 49.189 81.5954 48.8792C81.7941 48.5694 81.8628 48.1927 81.7862 47.8318C81.1887 45.0161 79.0767 43.6323 77.3549 43.2468C76.9244 43.1504 76.5074 43.0999 76.124 43.0778Z"
            fill="#262D37" />
        <path
            d="M44.3249 32.6487C43.362 32.7526 42.9014 33.3365 42.505 33.873C42.1086 34.4095 41.779 35.0426 41.462 35.7672C40.828 37.2164 40.2705 39.026 39.86 40.8441C39.4495 42.6621 39.1855 44.4621 39.2043 45.9573C39.2138 46.7049 39.2731 47.3744 39.5382 48.0375C39.6707 48.369 39.8647 48.7154 40.2023 49.0115C40.5398 49.3077 41.0419 49.5076 41.5082 49.5137C43.379 49.5385 50.0798 50.4992 56.2972 51.4727C59.4059 51.9595 62.4422 52.4476 64.8349 52.8205C67.2277 53.1935 68.7924 53.4492 69.6241 53.4857C70.5295 53.5253 71.3586 53.2619 72.2979 52.8872C73.2371 52.5125 74.2377 51.9933 75.1944 51.3782C76.1511 50.7632 77.0606 50.0573 77.8045 49.2702C78.5485 48.483 79.1751 47.6175 79.3471 46.5037C79.7011 44.1953 78.2589 42.2016 76.6913 40.5303C75.1237 38.859 73.3466 37.5245 71.731 36.989C69.2479 36.1645 63.0957 35.1221 57.0946 34.2043C54.0937 33.7454 51.1779 33.3361 48.9027 33.051C47.7651 32.9084 46.7886 32.7974 46.032 32.7257C45.2754 32.654 44.8987 32.5884 44.3243 32.6506L44.3249 32.6487ZM44.8251 35.4298C44.8946 35.4403 45.1905 35.4397 45.7744 35.4952C46.4853 35.5626 47.4425 35.671 48.5629 35.8114C50.8036 36.0922 53.7015 36.4995 56.6809 36.9551C62.6395 37.8664 69.1126 39.0479 70.8694 39.6313C71.5934 39.8713 73.3848 41.0537 74.687 42.4421C75.9892 43.8304 76.7183 45.4386 76.6205 46.0766C76.5906 46.2675 76.3361 46.7906 75.8075 47.3499C75.2782 47.91 74.5227 48.5093 73.7113 49.0309C72.8999 49.5525 72.0292 50.0015 71.2825 50.2994C70.5358 50.5973 69.8643 50.7106 69.743 50.7052C69.5478 50.6965 67.637 50.441 65.2552 50.0698C62.8734 49.6986 59.8358 49.2105 56.7199 48.7226C50.8035 47.7962 44.8814 46.8908 42.0678 46.7696C42.025 46.591 41.9671 46.3611 41.9616 45.9222C41.9474 44.8091 42.1721 43.1333 42.5494 41.4625C42.9267 39.7918 43.456 38.1003 43.985 36.8909C44.2496 36.2862 44.5204 35.8003 44.7158 35.5358C44.7748 35.456 44.7916 35.4548 44.8245 35.4298H44.8251Z"
            fill="#262D37" />
        <path
            d="M121.538 137.673C113.93 140.459 102.676 141.82 102.676 141.82C102.497 141.841 102.323 141.898 102.164 141.987C102.006 142.076 101.867 142.196 101.755 142.339C101.643 142.483 101.559 142.647 101.51 142.823C101.461 142.999 101.446 143.183 101.467 143.364C101.488 143.546 101.545 143.721 101.633 143.881C101.721 144.04 101.84 144.181 101.982 144.294C102.124 144.407 102.287 144.491 102.461 144.541C102.636 144.591 102.818 144.606 102.998 144.584C102.998 144.584 114.333 143.272 122.479 140.289C122.649 140.227 122.805 140.131 122.939 140.008C123.073 139.884 123.181 139.736 123.258 139.57C123.334 139.405 123.378 139.225 123.386 139.043C123.394 138.86 123.367 138.678 123.305 138.506C123.18 138.159 122.924 137.877 122.592 137.72C122.261 137.564 121.881 137.547 121.538 137.673Z"
            fill="#262D37" />
        <path
            d="M119.608 110.064C119.429 110.095 119.258 110.161 119.105 110.258C118.951 110.355 118.818 110.482 118.714 110.631C118.502 110.932 118.417 111.305 118.478 111.669C118.539 112.033 118.74 112.357 119.038 112.571C121.695 114.476 123.209 119.461 123.009 124.879C122.808 130.297 120.94 135.982 117.991 139C117.735 139.263 117.592 139.618 117.595 139.986C117.597 140.355 117.745 140.708 118.006 140.967C118.266 141.226 118.618 141.37 118.984 141.368C119.349 141.365 119.699 141.216 119.956 140.953C123.669 137.154 125.544 130.943 125.765 124.983C125.986 119.023 124.602 113.146 120.637 110.302C120.489 110.197 120.322 110.121 120.146 110.08C119.969 110.039 119.786 110.034 119.608 110.064Z"
            fill="#262D37" />
        <path
            d="M106.046 112.962C105.681 112.932 105.32 113.05 105.041 113.289C104.763 113.528 104.59 113.869 104.56 114.237C104.56 114.237 103.149 130.757 107.793 142.749C107.859 142.919 107.957 143.075 108.083 143.207C108.208 143.339 108.358 143.444 108.524 143.518C108.69 143.591 108.868 143.631 109.05 143.634C109.231 143.638 109.411 143.606 109.58 143.539C109.748 143.473 109.902 143.373 110.033 143.246C110.164 143.12 110.268 142.969 110.341 142.801C110.414 142.634 110.453 142.454 110.456 142.271C110.46 142.088 110.428 141.907 110.362 141.736C106.109 130.753 107.31 114.46 107.31 114.46C107.34 114.092 107.223 113.727 106.986 113.446C106.749 113.166 106.411 112.991 106.046 112.962Z"
            fill="#262D37" />
        <path
            d="M113.735 109.42C113.388 109.536 113.1 109.785 112.935 110.115C112.771 110.444 112.742 110.826 112.857 111.177C112.857 111.177 116.787 123.17 114.328 140.675C114.277 141.041 114.372 141.412 114.592 141.707C114.812 142.002 115.138 142.196 115.501 142.248C115.68 142.274 115.862 142.263 116.038 142.218C116.213 142.172 116.378 142.093 116.523 141.983C116.668 141.873 116.79 141.735 116.882 141.578C116.974 141.421 117.034 141.247 117.06 141.066C119.601 122.972 115.477 110.306 115.477 110.306C115.42 110.132 115.33 109.972 115.212 109.833C115.094 109.695 114.95 109.581 114.788 109.499C114.626 109.417 114.45 109.367 114.269 109.354C114.089 109.34 113.907 109.363 113.735 109.42Z"
            fill="#262D37" />
        <path
            d="M129.903 108.912C123.955 109.207 121.16 113.618 121.16 113.618C120.968 113.932 120.908 114.31 120.992 114.669C121.076 115.028 121.298 115.339 121.61 115.532C121.921 115.726 122.296 115.787 122.652 115.702C123.007 115.617 123.315 115.393 123.508 115.079C123.508 115.079 125.342 111.924 130.039 111.691C130.22 111.682 130.397 111.638 130.561 111.559C130.724 111.481 130.871 111.371 130.993 111.236C131.115 111.101 131.209 110.942 131.27 110.77C131.331 110.598 131.358 110.416 131.349 110.233C131.331 109.865 131.168 109.518 130.897 109.271C130.626 109.023 130.269 108.894 129.903 108.912Z"
            fill="#262D37" />
        <path
            d="M131.926 112.398C131.745 112.401 131.566 112.44 131.4 112.513C131.234 112.586 131.084 112.691 130.958 112.823C128.52 115.37 126.694 116.146 125.586 116.366C125.033 116.476 124.649 116.449 124.423 116.413C124.198 116.376 124.234 116.377 124.234 116.377C124.071 116.296 123.895 116.249 123.714 116.238C123.533 116.227 123.352 116.251 123.18 116.311C123.009 116.37 122.851 116.463 122.715 116.584C122.579 116.705 122.468 116.852 122.389 117.016C122.309 117.18 122.263 117.358 122.251 117.541C122.24 117.723 122.265 117.906 122.324 118.079C122.383 118.252 122.475 118.411 122.595 118.548C122.715 118.685 122.86 118.797 123.023 118.877C123.023 118.877 123.454 119.073 123.982 119.16C124.51 119.246 125.238 119.271 126.119 119.096C127.882 118.746 130.217 117.603 132.942 114.756C133.196 114.49 133.336 114.134 133.329 113.765C133.323 113.396 133.171 113.045 132.908 112.788C132.645 112.532 132.292 112.392 131.926 112.398Z"
            fill="#262D37" />
        <path
            d="M128.862 145.705C127.889 145.775 126.906 146.038 125.959 146.473C125.794 146.549 125.646 146.656 125.522 146.79C125.398 146.923 125.302 147.08 125.239 147.251C125.175 147.422 125.145 147.605 125.152 147.787C125.158 147.97 125.2 148.149 125.275 148.316C125.35 148.482 125.456 148.632 125.589 148.757C125.721 148.881 125.877 148.979 126.046 149.043C126.216 149.107 126.397 149.137 126.578 149.131C126.759 149.124 126.937 149.082 127.102 149.006C128.458 148.384 129.719 148.323 130.737 148.706C131.756 149.09 132.623 149.906 133.183 151.472C133.245 151.644 133.339 151.802 133.461 151.937C133.583 152.072 133.73 152.181 133.894 152.259C134.058 152.336 134.236 152.381 134.417 152.389C134.598 152.397 134.779 152.37 134.949 152.308C135.293 152.182 135.573 151.924 135.729 151.59C135.884 151.256 135.902 150.874 135.778 150.527C134.995 148.339 133.511 146.78 131.702 146.099C130.798 145.759 129.835 145.635 128.862 145.705Z"
            fill="#262D37" />
        <path
            d="M141.217 144.145C139.338 144.178 137.95 144.218 137.009 144.409C137.008 144.409 137.007 144.409 137.006 144.409C135.273 144.764 133.662 145.882 132.327 147.157C131.66 147.794 131.076 148.475 130.632 149.184C130.189 149.893 129.83 150.622 129.873 151.553C129.941 153.007 130.597 154.608 131.484 156.196C132.371 157.784 133.357 159.313 135.049 159.927C135.651 160.145 136.123 160.158 136.859 160.21C137.595 160.262 138.499 160.293 139.527 160.309C141.582 160.341 144.121 160.313 146.632 160.25C149.143 160.188 151.622 160.091 153.55 159.985C154.514 159.932 155.338 159.877 155.972 159.821C156.289 159.793 156.556 159.765 156.783 159.734C157.01 159.703 157.12 159.716 157.472 159.583C158.27 159.281 158.556 158.741 158.82 158.235C159.084 157.729 159.281 157.162 159.453 156.525C159.797 155.251 160.024 153.707 160.099 152.143C160.174 150.579 160.104 149.012 159.759 147.653C159.587 146.974 159.349 146.339 158.948 145.77C158.547 145.202 157.916 144.687 157.134 144.531C156.742 144.452 156.419 144.441 155.843 144.406C155.268 144.371 154.53 144.336 153.675 144.304C151.965 144.239 149.789 144.182 147.57 144.15C145.352 144.118 143.094 144.11 141.215 144.143L141.217 144.145ZM141.265 146.928C143.098 146.895 145.335 146.903 147.533 146.934C149.73 146.966 151.891 147.022 153.573 147.086C154.414 147.118 155.137 147.152 155.678 147.185C156.22 147.218 156.669 147.276 156.599 147.262C156.586 147.259 156.589 147.226 156.701 147.386C156.814 147.546 156.971 147.886 157.088 148.346C157.321 149.266 157.41 150.636 157.344 152.011C157.278 153.385 157.065 154.782 156.792 155.795C156.655 156.301 156.498 156.713 156.379 156.941C156.362 156.974 156.361 156.964 156.345 156.986C156.189 157.005 155.991 157.027 155.731 157.05C155.149 157.101 154.345 157.156 153.4 157.208C151.509 157.312 149.05 157.408 146.564 157.47C144.079 157.532 141.564 157.559 139.57 157.528C138.573 157.512 137.705 157.482 137.052 157.436C136.399 157.39 135.867 157.268 135.982 157.31C135.724 157.216 134.623 156.148 133.888 154.832C133.152 153.515 132.651 151.905 132.629 151.424C132.632 151.477 132.685 151.118 132.965 150.672C133.244 150.226 133.693 149.686 134.223 149.18C135.284 148.167 136.728 147.308 137.553 147.138C137.893 147.069 139.432 146.961 141.264 146.929L141.265 146.928Z"
            fill="#262D37" />
        <path
            d="M13.8513 121.06C13.6704 121.051 13.4895 121.079 13.319 121.14C13.1485 121.202 12.9916 121.297 12.8575 121.42C12.7233 121.542 12.6145 121.691 12.5371 121.856C12.4598 122.021 12.4154 122.2 12.4067 122.383C12.3979 122.565 12.4248 122.748 12.4859 122.92C12.547 123.092 12.6411 123.25 12.7628 123.385C12.8845 123.521 13.0315 123.63 13.1953 123.708C13.3591 123.787 13.5365 123.831 13.7174 123.84C13.7174 123.84 30.4503 124.661 47.7297 125.493C65.009 126.325 82.6762 127.165 85.0539 127.215C85.4197 127.223 85.7735 127.084 86.0375 126.829C86.3016 126.573 86.4543 126.223 86.462 125.854C86.4658 125.671 86.4339 125.489 86.3682 125.319C86.3024 125.149 86.2041 124.993 86.0787 124.861C85.9534 124.729 85.8035 124.624 85.6377 124.55C85.4718 124.477 85.2933 124.437 85.1122 124.433C83.1214 124.391 65.139 123.545 47.8612 122.713C30.5833 121.881 13.8513 121.06 13.8513 121.06Z"
            fill="#262D37" />
        <path
            d="M15.1524 133.252C14.9714 133.243 14.7905 133.27 14.62 133.332C14.4495 133.393 14.2927 133.488 14.1585 133.611C14.0244 133.734 13.9155 133.882 13.8382 134.047C13.7608 134.213 13.7165 134.391 13.7077 134.574C13.6989 134.757 13.7258 134.939 13.7869 135.111C13.848 135.283 13.9421 135.441 14.0639 135.577C14.1856 135.712 14.3325 135.822 14.4963 135.9C14.6601 135.978 14.8375 136.023 15.0185 136.031C15.0185 136.031 38.3345 137.173 58.343 138.131C58.7083 138.148 59.0655 138.019 59.3361 137.771C59.6066 137.522 59.7684 137.176 59.7859 136.807C59.8032 136.439 59.6747 136.078 59.4286 135.806C59.1826 135.533 58.8392 135.369 58.4739 135.352C38.4676 134.394 15.1524 133.252 15.1524 133.252Z"
            fill="#262D37" />
        <path
            d="M15.9895 145.444C15.6242 145.426 15.2668 145.555 14.9959 145.803C14.725 146.05 14.5627 146.397 14.5448 146.765C14.536 146.948 14.563 147.13 14.6241 147.302C14.6852 147.474 14.7793 147.633 14.901 147.768C15.0227 147.903 15.1697 148.013 15.3335 148.091C15.4972 148.169 15.6747 148.214 15.8556 148.223C15.8556 148.223 35.2082 149.172 53.7809 150.062C53.9619 150.071 54.1428 150.044 54.3133 149.982C54.4838 149.92 54.6406 149.825 54.7746 149.702C54.9087 149.579 55.0174 149.431 55.0946 149.265C55.1717 149.1 55.2159 148.921 55.2244 148.738C55.233 148.556 55.2058 148.373 55.1445 148.201C55.0831 148.029 54.9888 147.871 54.867 147.736C54.7451 147.601 54.598 147.491 54.4341 147.414C54.2702 147.336 54.0928 147.291 53.9118 147.283C35.3412 146.393 15.9895 145.444 15.9895 145.444Z"
            fill="#262D37" />
        <path
            d="M76.5223 210.659C76.157 210.678 75.814 210.842 75.5688 211.116L71.3326 215.842C71.1625 216.032 71.0477 216.265 71.0006 216.517C70.9535 216.768 70.976 217.028 71.0656 217.267C71.1553 217.507 71.3087 217.716 71.5088 217.874C71.709 218.031 71.9482 218.129 72.2003 218.158L76.1416 218.608C76.3216 218.629 76.5038 218.613 76.6778 218.563C76.8519 218.512 77.0145 218.428 77.1561 218.314C77.2978 218.2 77.4159 218.059 77.5036 217.899C77.5913 217.739 77.6469 217.564 77.6673 217.382C77.6877 217.2 77.6724 217.016 77.6224 216.841C77.5723 216.665 77.4885 216.501 77.3756 216.358C77.2628 216.215 77.1232 216.096 76.9647 216.008C76.8062 215.919 76.632 215.863 76.452 215.843L75.1815 215.697L77.6151 212.982C77.7366 212.847 77.8304 212.688 77.8912 212.516C77.952 212.344 77.9786 212.161 77.9695 211.979C77.9603 211.796 77.9157 211.617 77.8379 211.452C77.7602 211.287 77.651 211.139 77.5166 211.017C77.2452 210.769 76.8876 210.641 76.5223 210.659Z"
            fill="#262D37" />
        <path
            d="M167.614 181.64L101.056 193.549C100.696 193.614 100.376 193.82 100.166 194.122C99.9564 194.425 99.8745 194.799 99.9382 195.162C99.9698 195.342 100.036 195.514 100.134 195.668C100.231 195.822 100.358 195.955 100.506 196.06C100.655 196.164 100.822 196.239 100.999 196.278C101.176 196.317 101.359 196.321 101.537 196.289L168.095 184.379C168.274 184.348 168.444 184.281 168.597 184.182C168.749 184.084 168.882 183.956 168.985 183.806C169.089 183.657 169.163 183.488 169.202 183.309C169.241 183.131 169.244 182.946 169.213 182.766C169.149 182.403 168.944 182.08 168.645 181.869C168.345 181.658 167.974 181.575 167.614 181.64Z"
            fill="#262D37" />
        <path
            d="M127.822 199.446L102.079 204.052C101.9 204.084 101.73 204.151 101.577 204.25C101.425 204.348 101.293 204.476 101.189 204.625C101.085 204.775 101.011 204.944 100.972 205.123C100.933 205.301 100.93 205.486 100.961 205.666C100.993 205.845 101.059 206.017 101.157 206.171C101.254 206.326 101.381 206.459 101.529 206.563C101.678 206.668 101.845 206.742 102.022 206.781C102.199 206.821 102.382 206.825 102.56 206.793L128.303 202.187C128.482 202.155 128.652 202.088 128.805 201.989C128.957 201.891 129.089 201.763 129.193 201.614C129.297 201.464 129.37 201.295 129.409 201.116C129.448 200.938 129.452 200.753 129.421 200.573C129.389 200.394 129.323 200.222 129.225 200.068C129.128 199.913 129.001 199.78 128.853 199.676C128.704 199.571 128.537 199.497 128.36 199.458C128.183 199.418 128 199.414 127.822 199.446Z"
            fill="#262D37" />
        <path
            d="M144.257 205.892L102.2 213.418C102.022 213.45 101.851 213.517 101.699 213.615C101.546 213.713 101.414 213.841 101.31 213.991C101.206 214.141 101.133 214.31 101.094 214.488C101.055 214.666 101.051 214.851 101.083 215.031C101.114 215.211 101.181 215.383 101.278 215.537C101.376 215.691 101.502 215.824 101.651 215.929C101.799 216.033 101.967 216.108 102.144 216.147C102.32 216.186 102.503 216.19 102.682 216.158L144.738 208.633C144.916 208.601 145.087 208.534 145.24 208.436C145.392 208.337 145.524 208.21 145.628 208.06C145.732 207.91 145.805 207.741 145.844 207.563C145.883 207.384 145.887 207.2 145.856 207.02C145.824 206.84 145.757 206.668 145.66 206.514C145.563 206.36 145.436 206.227 145.288 206.122C145.139 206.017 144.972 205.943 144.795 205.904C144.618 205.864 144.435 205.861 144.257 205.892Z"
            fill="#262D37" />
        <path
            d="M125.415 220.282L103.502 224.202C103.324 224.234 103.154 224.301 103.001 224.4C102.848 224.498 102.716 224.626 102.612 224.775C102.509 224.925 102.435 225.094 102.396 225.273C102.357 225.451 102.353 225.636 102.385 225.815C102.417 225.995 102.483 226.167 102.58 226.321C102.678 226.475 102.805 226.609 102.953 226.713C103.101 226.818 103.269 226.892 103.446 226.931C103.623 226.971 103.806 226.975 103.984 226.943L125.897 223.022C126.257 222.957 126.577 222.751 126.786 222.449C126.996 222.146 127.078 221.773 127.014 221.409C126.982 221.229 126.916 221.057 126.819 220.903C126.721 220.749 126.594 220.616 126.446 220.511C126.298 220.407 126.13 220.333 125.953 220.293C125.776 220.254 125.593 220.25 125.415 220.282Z"
            fill="#262D37" />
        <path
            d="M73.3284 205.75C72.702 205.718 72.0695 205.723 71.4352 205.767C71.0703 205.792 70.7302 205.962 70.4897 206.24C70.2492 206.518 70.1279 206.881 70.1527 207.249C70.1649 207.431 70.2126 207.609 70.293 207.773C70.3735 207.937 70.4851 208.083 70.6215 208.203C70.758 208.324 70.9165 208.415 71.0882 208.474C71.2599 208.532 71.4412 208.556 71.622 208.544C75.7922 208.258 79.9577 210.137 81.9622 212.818C82.9645 214.158 83.4538 215.646 83.2934 217.277C83.133 218.907 82.3043 220.751 80.3656 222.721C79.0205 224.088 75.3074 225.154 71.703 224.985C68.0987 224.816 64.7868 223.483 63.6841 221.538C63.5025 221.217 63.2023 220.983 62.8494 220.886C62.4965 220.789 62.1198 220.837 61.8023 221.02C61.4847 221.204 61.2524 221.506 61.1562 221.862C61.06 222.218 61.108 222.599 61.2895 222.919C63.1873 226.267 67.4354 227.571 71.5751 227.765C75.7149 227.959 79.9305 227.114 82.3237 224.682C84.5983 222.37 85.8046 219.925 86.038 217.552C86.2716 215.178 85.5136 212.947 84.1641 211.142C81.8023 207.983 77.7132 205.971 73.3284 205.75Z"
            fill="#262D37" />
        <path
            d="M82.8275 220.241C82.4673 220.304 82.147 220.51 81.937 220.812C81.833 220.961 81.7592 221.13 81.7198 221.309C81.6805 221.487 81.6764 221.672 81.7077 221.852C81.739 222.032 81.8052 222.204 81.9025 222.358C81.9997 222.512 82.1261 222.645 82.2745 222.75C82.2745 222.75 82.6381 223.024 82.8815 223.302C82.61 223.625 82.3241 223.971 82.0535 224.231C81.9706 224.311 81.9268 224.34 81.8559 224.4C81.763 224.338 81.6815 224.289 81.5821 224.214C81.2224 223.945 80.906 223.669 80.906 223.669C80.63 223.427 80.2701 223.305 79.9052 223.331C79.5404 223.356 79.2006 223.527 78.9606 223.805C78.7207 224.084 78.6002 224.447 78.6257 224.815C78.6511 225.183 78.8204 225.526 79.0963 225.768C79.0963 225.768 79.476 226.103 79.9393 226.45C80.171 226.623 80.4246 226.802 80.7025 226.963C80.9792 227.124 81.1998 227.323 81.8451 227.349C82.5582 227.378 82.8589 227.115 83.1535 226.915C83.4487 226.715 83.7046 226.489 83.9593 226.244C84.4682 225.753 84.9544 225.187 85.3361 224.704C85.806 224.11 85.8549 223.24 85.682 222.693C85.509 222.145 85.2274 221.782 84.9632 221.477C84.435 220.867 83.8578 220.473 83.8578 220.473C83.7094 220.368 83.542 220.293 83.3651 220.254C83.1882 220.214 83.0053 220.21 82.8269 220.242L82.8275 220.241Z"
            fill="#262D37" />
        <path
            d="M70.0476 224.83C69.8683 224.804 69.6857 224.814 69.5102 224.86C69.3348 224.905 69.1699 224.985 69.025 225.095C65.6043 227.684 63.8326 230.085 62.9323 231.909C62.4822 232.822 62.2509 233.588 62.1343 234.149C62.0178 234.71 62.0184 235.165 62.0184 235.165C62.0277 235.534 62.1818 235.884 62.4467 236.138C62.7116 236.392 63.0658 236.53 63.4313 236.521C63.7969 236.512 64.1439 236.356 64.396 236.089C64.6481 235.822 64.7847 235.465 64.7757 235.096C64.7757 235.096 64.764 235.055 64.8339 234.719C64.9037 234.383 65.0574 233.848 65.4019 233.15C66.0911 231.753 67.5474 229.693 70.6811 227.32C70.9736 227.099 71.1669 226.769 71.2185 226.403C71.2701 226.038 71.1757 225.667 70.9561 225.372C70.7365 225.077 70.4097 224.882 70.0476 224.83Z"
            fill="#262D37" />
        <path
            d="M92.0642 204.193C91.8905 204.141 91.7084 204.124 91.5282 204.143C91.348 204.162 91.1733 204.216 91.014 204.303C86.3297 206.863 82.2451 211.28 82.2451 211.28C81.9939 211.548 81.8586 211.906 81.869 212.275C81.8793 212.644 82.0345 212.993 82.3003 213.247C82.432 213.372 82.5869 213.47 82.7562 213.536C82.9254 213.601 83.1058 213.632 83.2869 213.627C83.468 213.621 83.6463 213.58 83.8117 213.506C83.9771 213.431 84.1262 213.324 84.2506 213.191C84.2506 213.191 88.2387 208.985 92.3284 206.75C92.6498 206.574 92.8889 206.277 92.993 205.923C93.0972 205.569 93.0579 205.189 92.8838 204.864C92.7976 204.703 92.6808 204.562 92.5402 204.446C92.3995 204.331 92.2378 204.245 92.0642 204.193Z"
            fill="#262D37" />
        <path
            d="M77.1022 197.467C76.0553 197.539 75.0087 197.913 74.0988 198.608C73.9544 198.719 73.833 198.857 73.7414 199.015C73.6499 199.172 73.5901 199.347 73.5654 199.528C73.5407 199.709 73.5516 199.893 73.5975 200.07C73.6434 200.247 73.7233 200.413 73.8328 200.558C74.0538 200.852 74.3815 201.046 74.7438 201.096C75.1062 201.147 75.4735 201.05 75.7651 200.827C76.7276 200.091 77.8926 200.077 78.7691 200.567C79.6455 201.058 80.2921 201.97 80.0751 203.688C80.0288 204.054 80.1286 204.424 80.3525 204.716C80.5763 205.008 80.9059 205.198 81.2687 205.244C81.6316 205.291 81.998 205.19 82.2872 204.965C82.5765 204.739 82.765 204.406 82.8113 204.04C83.1475 201.379 81.9295 199.154 80.1075 198.134C79.1965 197.624 78.1493 197.395 77.1022 197.467Z"
            fill="#262D37" />
        <path
            d="M46.0892 185.721C45.6291 185.718 45.2267 185.734 44.8343 185.801C44.4418 185.869 43.9978 185.891 43.4971 186.482C42.7109 187.413 42.6002 188.384 42.385 189.657C42.1698 190.93 42.0346 192.424 41.9707 193.918C41.9069 195.411 41.9147 196.895 42.0044 198.143C42.0492 198.767 42.1135 199.33 42.2091 199.829C42.3048 200.329 42.3805 200.743 42.7087 201.247C43.1141 201.868 43.4394 201.91 43.766 202.049C44.0927 202.188 44.4485 202.3 44.8637 202.412C45.694 202.638 46.7531 202.856 47.9944 203.078C50.477 203.52 53.6715 203.965 56.8894 204.37C63.3252 205.18 69.7926 205.82 70.738 205.903C70.7391 205.903 70.7401 205.903 70.7411 205.903C71.7392 205.99 72.4675 205.663 73.3825 205.278C74.2974 204.892 75.2888 204.375 76.231 203.818C77.1732 203.261 78.0584 202.67 78.7607 202.112C79.1118 201.833 79.4159 201.566 79.6806 201.275C79.9453 200.984 80.2668 200.754 80.3423 199.965C80.3423 199.964 80.3423 199.962 80.3423 199.961C80.4559 198.745 79.9357 198.113 79.399 197.251C78.8622 196.389 78.1593 195.465 77.4085 194.577C76.6577 193.69 75.8638 192.845 75.1406 192.167C74.4174 191.489 73.9593 190.982 73.0451 190.674C72.6735 190.549 72.218 190.444 71.3812 190.244C70.5444 190.044 69.4308 189.788 68.1298 189.498C65.5278 188.919 62.178 188.207 58.8229 187.558C55.4678 186.91 52.1133 186.323 49.4698 185.994C48.148 185.829 47.0101 185.727 46.0899 185.72L46.0892 185.721ZM46.067 188.504C46.7942 188.51 47.8666 188.6 49.1311 188.757C51.6601 189.072 54.9806 189.65 58.3029 190.293C61.6252 190.936 64.9551 191.643 67.5347 192.217C68.8246 192.504 69.9272 192.758 70.7448 192.954C71.5623 193.149 72.1996 193.324 72.1708 193.315C71.9421 193.237 72.6403 193.624 73.2618 194.207C73.8833 194.79 74.6225 195.573 75.3093 196.385C75.9962 197.197 76.6351 198.046 77.0626 198.732C77.2629 199.054 77.3733 199.361 77.4493 199.571C77.3345 199.68 77.2369 199.78 77.0518 199.927C76.4976 200.368 75.6893 200.913 74.8349 201.418C73.9806 201.923 73.0722 202.393 72.3179 202.711C71.5639 203.029 70.8545 203.121 70.9771 203.132C70.1688 203.061 63.6161 202.413 57.2299 201.61C54.0364 201.208 50.8693 200.765 48.4742 200.338C47.2767 200.125 46.2681 199.913 45.5806 199.727C45.2982 199.65 45.1166 199.584 44.9688 199.528C44.943 199.453 44.9516 199.485 44.9166 199.303C44.8522 198.967 44.7939 198.492 44.7544 197.943C44.6756 196.845 44.6651 195.441 44.7249 194.039C44.7849 192.637 44.9161 191.229 45.1026 190.126C45.2387 189.321 45.4382 188.789 45.5241 188.533C45.6729 188.519 45.8109 188.502 46.067 188.504Z"
            fill="#262D37" />
        <path
            d="M158.653 92.3687C158.288 92.3886 157.945 92.5541 157.701 92.8287C157.457 93.1032 157.33 93.4644 157.35 93.8329L161.639 173.917C161.659 174.285 161.823 174.631 162.095 174.877C162.367 175.124 162.725 175.251 163.09 175.231C163.271 175.221 163.448 175.176 163.612 175.097C163.775 175.018 163.921 174.907 164.042 174.771C164.163 174.635 164.257 174.476 164.317 174.304C164.377 174.132 164.403 173.949 164.393 173.767L160.105 93.6826C160.085 93.3142 159.921 92.9688 159.648 92.7224C159.376 92.476 159.018 92.3488 158.653 92.3687Z"
            fill="#262D37" />
        <path
            d="M155.684 0.00860164C155.292 -0.0100073 154.661 0.00395304 153.56 0.0278345C152.458 0.0520261 150.962 0.0923969 149.123 0.147169C145.446 0.256714 140.404 0.423072 134.454 0.628142C122.554 1.03828 107.022 1.60333 91.5315 2.17828C76.0413 2.75327 60.5933 3.33813 48.8626 3.78779C37.132 4.23741 29.2834 4.54243 28.4781 4.58678C24.1155 4.82659 20.7509 6.37482 18.5678 9.02579C16.3847 11.6767 15.4267 15.2779 15.3476 19.4539C15.3316 20.3396 15.402 23.3073 15.5325 28.2066C15.663 33.1058 15.857 39.8357 16.0981 47.8956C16.5805 64.0153 17.2513 85.4551 17.9799 108.199C17.9918 108.568 18.1484 108.917 18.4153 109.169C18.6822 109.421 19.0374 109.556 19.403 109.544C19.584 109.538 19.7621 109.497 19.9272 109.421C20.0922 109.346 20.2409 109.239 20.3648 109.105C20.4887 108.972 20.5854 108.815 20.6492 108.644C20.7131 108.473 20.743 108.291 20.7371 108.109C20.0086 85.3662 19.3376 63.9277 18.8553 47.8114C18.6142 39.7532 18.4201 33.0257 18.2898 28.1321C18.1594 23.2384 18.0957 20.0778 18.106 19.5042C18.1777 15.7286 19.0424 12.8034 20.6897 10.8031C22.3372 8.8026 24.8108 7.57468 28.6288 7.3648C29.0625 7.34092 37.2388 7.01721 48.9683 6.56762C60.6978 6.11803 76.1447 5.53304 91.6336 4.95811C107.122 4.38322 122.653 3.81796 134.549 3.40797C140.497 3.20297 145.536 3.03687 149.205 2.92761C151.039 2.87296 152.531 2.83276 153.62 2.80888C154.708 2.785 155.469 2.78319 155.555 2.78722C158.561 2.92927 160.989 3.64088 162.698 4.86498C164.406 6.08827 165.485 7.79231 165.856 10.355C165.845 10.2725 165.882 10.6215 165.919 11.0698C165.957 11.523 166.009 12.1668 166.074 12.9864C166.204 14.6256 166.386 16.9694 166.612 19.9181C166.641 20.286 166.812 20.6275 167.09 20.8675C167.368 21.1075 167.729 21.2265 168.094 21.1981C168.274 21.1841 168.45 21.1342 168.612 21.0515C168.773 20.9688 168.917 20.8548 169.035 20.716C169.153 20.5773 169.243 20.4165 169.299 20.2428C169.355 20.0691 169.377 19.8859 169.363 19.7037C169.137 16.7534 168.954 14.4078 168.824 12.7641C168.759 11.9423 168.707 11.2963 168.668 10.836C168.63 10.3756 168.619 10.2007 168.588 9.97093C168.587 9.96668 168.586 9.96244 168.585 9.95821C168.123 6.76125 166.585 4.23671 164.293 2.5958C162.002 0.954927 159.044 0.166217 155.683 0.00739012L155.684 0.00860164ZM173.254 89.7186C172.889 89.7465 172.551 89.9193 172.312 90.1991C172.074 90.4789 171.955 90.8427 171.983 91.2106C173.972 117.809 176.139 146.848 177.977 171.477C177.991 171.66 178.04 171.837 178.121 172.001C178.203 172.164 178.316 172.309 178.453 172.428C178.591 172.547 178.75 172.638 178.922 172.695C179.094 172.752 179.276 172.774 179.456 172.76C179.821 172.733 180.16 172.56 180.399 172.28C180.637 172 180.756 171.636 180.728 171.268C178.89 146.64 176.722 117.6 174.733 91.0016C174.72 90.8193 174.671 90.6415 174.589 90.4784C174.507 90.3153 174.394 90.17 174.257 90.0509C174.12 89.9317 173.96 89.841 173.788 89.784C173.616 89.727 173.435 89.7048 173.254 89.7186ZM21.5958 176.644C21.4148 176.65 21.2367 176.692 21.0717 176.768C20.9068 176.843 20.7582 176.951 20.6345 177.084C20.5108 177.218 20.4143 177.374 20.3506 177.546C20.287 177.717 20.2573 177.899 20.2634 178.081C20.8491 195.655 21.3813 211.286 21.7838 222.682C21.985 228.38 22.1538 233.018 22.2809 236.314C22.3444 237.961 22.3973 239.273 22.4388 240.215C22.4804 241.158 22.4973 241.625 22.5337 241.964C23.0436 246.68 24.7765 250.424 27.8218 252.831C30.8672 255.238 35.0683 256.23 40.2613 255.955C43.8558 255.767 75.1993 254.035 106.242 252.298C121.763 251.43 137.205 250.562 149.054 249.885C160.902 249.208 169.012 248.736 170.344 248.62C174.889 248.222 178.935 247.494 181.744 244.679C184.553 241.863 185.723 237.254 185.12 229.942C185.089 229.575 184.915 229.234 184.636 228.996C184.357 228.757 183.995 228.641 183.631 228.671C183.266 228.702 182.929 228.877 182.692 229.159C182.456 229.441 182.34 229.805 182.37 230.173C182.942 237.098 181.814 240.686 179.8 242.704C177.786 244.723 174.484 245.464 170.105 245.848C169.142 245.932 160.743 246.43 148.897 247.107C137.05 247.783 121.609 248.652 106.088 249.52C75.0466 251.256 43.6677 252.99 40.1171 253.176C35.3464 253.429 31.8875 252.509 29.5229 250.64C27.1584 248.771 25.7315 245.875 25.2759 241.663C25.279 241.686 25.236 241.023 25.1949 240.091C25.1537 239.158 25.1004 237.85 25.037 236.205C24.9101 232.915 24.7415 228.278 24.5404 222.582C24.1381 211.189 23.6063 195.56 23.0207 177.988C23.0146 177.805 22.9729 177.625 22.8981 177.459C22.8232 177.292 22.7165 177.143 22.5842 177.018C22.4519 176.893 22.2965 176.796 22.1269 176.731C21.9573 176.667 21.7769 176.637 21.5958 176.643V176.644Z"
            fill="#262D37" />
    </g>
    <defs>
        <clipPath id="clip0_55_8817">
            <rect width="201" height="256" fill="white" />
        </clipPath>
    </defs>
</svg>
