<svg width="260" height="235" viewBox="0 0 260 235" fill="none" xmlns="http://www.w3.org/2000/svg">
    <g clip-path="url(#clip0_55_9172)">
        <path fill-rule="evenodd" clip-rule="evenodd"
            d="M125.174 30.9526C161.663 30.8153 200.247 42.5749 212.911 76.6538C227.027 114.64 213.65 157.42 181.287 181.954C146.495 208.33 98.0686 216.273 62.935 190.351C28.6103 165.025 23.9713 116.956 39.4529 77.3063C52.4802 43.9423 89.2268 31.0878 125.174 30.9526Z" fill="#FFF6EB" />
        <mask id="mask0_55_9172" style="mask-type:luminance" maskUnits="userSpaceOnUse" x="-27" y="-1452" width="608" height="3216">
            <path d="M580.868 1763.35L580.868 -1451.05H-26.5642L-26.5642 1763.35H580.868Z" fill="white" />
        </mask>
        <g mask="url(#mask0_55_9172)">
            <path fill-rule="evenodd" clip-rule="evenodd"
                d="M202.025 123.144C205.986 124.08 227.839 126.085 238.916 148.074C243.346 156.866 248.274 179.977 247.879 187.532C247.865 187.797 247.845 188.044 247.818 188.267C247.612 189.976 247.372 191.634 247.11 193.238C244.355 210.04 238.828 220.811 238.098 221.702C237.302 222.674 227.729 218.952 222.743 212.039C221.939 210.927 230.337 203.105 229.428 189.44C229.406 189.112 229.343 188.769 229.247 188.416C228.699 186.423 227.019 184.035 224.925 181.192L208.601 176.683L206.709 182.333L198.831 219.312L211.037 222.971C210.969 223.189 210.957 223.495 211.059 223.862C205.191 223.872 199.929 223.867 195.211 223.85C191.087 172.209 202.121 126.274 202.053 124.493C202.037 124.077 202.028 123.626 202.025 123.144Z"
                fill="#FFAA4D" />
        </g>
        <mask id="mask1_55_9172" style="mask-type:luminance" maskUnits="userSpaceOnUse" x="-27" y="-1452" width="608" height="3216">
            <path d="M580.868 1763.35L580.868 -1451.05H-26.5642L-26.5642 1763.35H580.868Z" fill="white" />
        </mask>
        <g mask="url(#mask1_55_9172)">
            <path fill-rule="evenodd" clip-rule="evenodd"
                d="M183.595 121.156C183.558 121.606 183.506 122.01 183.434 122.299C183.117 123.568 171.177 130.763 173.261 223.617C156.491 223.255 154.626 222.535 154.624 221.702C154.586 204.454 155.218 190.111 156.033 178.858C126.904 201.858 116.89 200.891 116.359 199.745C110.934 188.044 111.621 180.682 112.363 180.183C136.363 164.027 143.238 150.685 147.69 143.233C152.119 135.818 154.728 131.605 159.857 130.447C174.431 127.156 183.595 121.156 183.595 121.156Z"
                fill="#FFAA4D" />
        </g>
        <path
            d="M14.8835 135.957C14.6313 135.894 14.3646 135.934 14.1421 136.068C9.33181 138.965 0.00253809 146.608 9.16738e-07 159.949C-0.00171339 169.099 2.40127 192.94 4.10783 201.154C4.31184 202.136 4.33087 204.161 4.26472 206.526C4.19857 208.891 4.07042 211.64 4.07531 214.308C4.0802 216.977 4.2105 219.56 4.70669 221.67C4.95478 222.725 5.29235 223.668 5.80205 224.453C6.31174 225.239 7.03316 225.877 7.94732 226.143C10.8341 226.984 22.2051 229.876 35.0557 230.379C47.9064 230.881 62.3 229.035 70.9462 219.959C71.3429 219.542 71.4622 219.071 71.5388 218.584C71.6153 218.098 71.6253 217.568 71.5995 216.982C71.548 215.811 71.3444 214.422 71.0772 212.972C70.5429 210.072 69.746 206.931 69.3533 205.194C69.2961 204.94 69.1405 204.72 68.9208 204.581C68.7011 204.443 68.4353 204.397 68.1819 204.454C68.0564 204.482 67.9377 204.535 67.8326 204.609C67.7275 204.684 67.638 204.778 67.5693 204.887C67.5006 204.995 67.454 205.117 67.4321 205.243C67.4103 205.37 67.4136 205.5 67.442 205.626C67.8479 207.422 68.6336 210.522 69.1505 213.327C69.409 214.73 69.5979 216.06 69.6423 217.068C69.6644 217.572 69.6481 217.996 69.6035 218.28C69.5589 218.563 69.462 218.676 69.5275 218.607C61.5473 226.985 47.7331 228.914 35.1323 228.421C22.5315 227.928 11.2076 225.052 8.495 224.262C8.10054 224.147 7.77341 223.892 7.44556 223.387C7.11772 222.882 6.82888 222.137 6.61376 221.222C6.18352 219.392 6.03928 216.908 6.03451 214.305C6.02974 211.702 6.15652 208.974 6.22345 206.581C6.29038 204.188 6.32015 202.172 6.0259 200.755C4.40084 192.934 1.95753 168.746 1.95921 159.95C1.96166 147.523 10.6837 140.438 15.1528 137.746C15.263 137.68 15.359 137.593 15.4355 137.489C15.5119 137.386 15.5672 137.268 15.5982 137.143C15.6292 137.018 15.6353 136.889 15.6161 136.762C15.597 136.634 15.553 136.512 15.4866 136.402C15.3526 136.179 15.1356 136.019 14.8835 135.957Z"
            fill="#262D37" />
        <mask id="mask2_55_9172" style="mask-type:luminance" maskUnits="userSpaceOnUse" x="-27" y="-1452" width="608" height="3216">
            <path d="M580.868 1763.35L580.868 -1451.05H-26.5642L-26.5642 1763.35H580.868Z" fill="white" />
        </mask>
        <g mask="url(#mask2_55_9172)">
            <path fill-rule="evenodd" clip-rule="evenodd"
                d="M46.8937 122.184C48.5548 121.805 50.0007 121.131 51.0384 120.203C57.8412 114.117 56.051 91.7781 56.051 91.7781C48.6925 91.1487 41.6922 88.5161 35.0429 83.9169C34.572 88.5014 32.9076 92.116 29.4584 94.2883C29.4584 94.2883 29.8532 122.941 30.8918 134.576C31.0263 136.082 30.5605 140.15 20.5489 139.854C14.9679 139.689 14.1668 137.089 13.7943 132.727C13.6241 130.731 9.19975 84.2818 19.0543 81.49C19.0543 81.49 22.2461 72.9775 32.974 72.0689C45.28 71.0257 55.1022 73.8566 57.8285 82.3153C60.7526 91.3887 58.8076 111.357 59.6736 122.787C60.2848 130.856 61.164 134.715 57.995 136.062C53.6265 134.135 49.4019 132.59 48.4407 131.872C46.4411 130.383 46.7813 125.108 46.8937 122.184Z"
                fill="#FFAA4D" />
        </g>
        <path
            d="M47.7145 2.61426C32.8977 2.61426 20.8826 14.8582 20.8826 29.915C20.8826 44.9718 32.8977 57.2157 47.7145 57.2157C62.5312 57.2157 74.546 44.9718 74.546 29.915C74.546 14.8582 62.5312 2.61426 47.7145 2.61426ZM47.7145 4.57318C61.4532 4.57318 72.587 15.8981 72.587 29.915C72.587 43.9319 61.4532 55.2568 47.7145 55.2568C33.9758 55.2568 22.8419 43.9319 22.8419 29.915C22.8419 15.8981 33.9758 4.57318 47.7145 4.57318Z"
            fill="#262D37" />
        <path
            d="M110.14 78.2119C96.2175 78.2119 84.8966 89.3595 84.8966 103.102C84.8966 116.845 96.2175 127.993 110.14 127.993C124.062 127.993 135.383 116.845 135.383 103.102C135.383 89.3595 124.062 78.2119 110.14 78.2119ZM110.14 80.1711C123.018 80.1711 133.424 90.4339 133.424 103.102C133.424 115.771 123.018 126.034 110.14 126.033C97.2609 126.034 86.8558 115.771 86.8558 103.102C86.8558 90.4339 97.2609 80.1711 110.14 80.1711Z"
            fill="#262D37" />
        <path
            d="M191.592 0C176.427 0 164.035 12.0724 164.035 27.0497C164.035 42.027 176.427 54.0997 191.592 54.0997C206.757 54.0997 219.149 42.027 219.149 27.0497C219.149 12.0724 206.757 0 191.592 0ZM191.592 2.0247C205.818 2.0247 217.253 13.2668 217.253 27.0497C217.253 40.8326 205.818 52.075 191.592 52.075C177.366 52.075 165.931 40.8326 165.931 27.0497C165.931 13.2668 177.366 2.02468 191.592 2.0247Z"
            fill="#262D37" />
        <path
            d="M83.2789 102.123C83.0191 102.123 82.7699 102.226 82.5862 102.41C82.4025 102.593 82.2993 102.843 82.2993 103.102C82.2993 118.251 94.7926 130.553 110.14 130.553C117.778 130.553 124.713 127.509 129.747 122.583C129.933 122.401 130.038 122.153 130.041 121.893C130.044 121.633 129.944 121.383 129.762 121.197C129.58 121.012 129.332 120.906 129.072 120.903C128.813 120.9 128.562 121.001 128.377 121.182C123.697 125.762 117.258 128.594 110.14 128.594C95.8377 128.594 84.2585 117.175 84.2585 103.103C84.2585 102.843 84.1553 102.593 83.9716 102.41C83.7879 102.226 83.5387 102.123 83.2789 102.123Z"
            fill="#262D37" />
        <path
            d="M58.0792 14.1393C57.2852 14.0566 56.504 14.2887 55.7722 14.5716C55.7717 14.5716 55.7711 14.5716 55.7706 14.5716C54.9698 14.883 49.234 17.2519 43.3629 19.7133C40.4274 20.944 37.48 22.1892 35.1522 23.1917C32.8244 24.1941 31.2394 24.8782 30.5898 25.2491C29.6107 25.8082 28.9262 26.4112 28.6033 27.2132C28.2803 28.0152 28.4173 28.8355 28.6577 29.5734C28.746 29.8441 28.8561 30.0661 29.0502 30.487C29.2444 30.9079 29.5026 31.4535 29.8058 32.0853C30.4123 33.3489 31.1972 34.9558 31.9907 36.5644C32.7841 38.1729 33.5858 39.7828 34.2251 41.0518C34.8645 42.3207 35.2936 43.1708 35.5089 43.5341C36.12 44.5659 37.0172 45.2817 38.0414 45.5502C39.0656 45.8187 40.1618 45.645 41.1785 45.1505H41.1789C41.298 45.0925 42.8764 44.3884 44.9892 43.4608C47.102 42.5332 49.8446 41.3346 52.6067 40.1322C55.3688 38.9298 58.1508 37.7237 60.3416 36.7808C62.5325 35.8379 64.2006 35.1335 64.4981 35.0221H64.4989C65.5099 34.642 66.2027 33.9531 66.4917 33.1885C66.7807 32.4239 66.6934 31.6682 66.4606 31.0727C66.3167 30.7055 65.0681 27.4497 63.8359 24.2247C62.6036 20.9998 61.3379 17.6674 61.2459 17.4052C60.6849 15.8083 59.9407 14.7664 58.8762 14.3371C58.6101 14.2298 58.3439 14.1676 58.0792 14.1401L58.0792 14.1393ZM57.4959 16.108C57.7687 16.0699 57.9801 16.0875 58.1435 16.1534C58.4702 16.2851 58.9264 16.7126 59.3977 18.054C59.5835 18.5832 60.7731 21.6979 62.0058 24.924C63.2385 28.15 64.4643 31.3481 64.636 31.7865C64.7188 31.9982 64.7423 32.2767 64.6593 32.4964C64.5762 32.7161 64.4141 32.9615 63.8095 33.1889C63.2987 33.3803 61.7615 34.0374 59.5672 34.9819C57.3722 35.9266 54.5885 37.1337 51.8247 38.3369C49.0609 39.54 46.3172 40.7391 44.2017 41.6678C42.0862 42.5966 40.6946 43.2077 40.3208 43.3899C39.6326 43.7244 39.0343 43.7859 38.5384 43.6559C38.0424 43.5258 37.5935 43.2098 37.1948 42.5365H37.1944C37.1304 42.4286 36.6107 41.4332 35.9748 40.1712C35.339 38.9093 34.5391 37.303 33.7478 35.6988C32.9566 34.0947 32.1735 32.4921 31.5721 31.239C31.2714 30.6125 31.0159 30.0727 30.8291 29.6676C30.6423 29.2626 30.5045 28.9186 30.5205 28.9675C30.3402 28.4142 30.337 28.1539 30.4207 27.9459C30.5045 27.7378 30.7735 27.4014 31.5614 26.9515C31.7955 26.8179 33.6097 25.9901 35.9271 24.9922C38.2445 23.9942 41.1883 22.7506 44.1205 21.5213C49.984 19.063 55.8873 16.6297 56.4789 16.3997C56.8887 16.2413 57.223 16.147 57.4959 16.1088L57.4959 16.108Z"
            fill="#262D37" />
        <path
            d="M53.6726 10.5748C52.9914 10.5748 52.4891 10.8442 52.0775 11.056H52.0771H52.0767C51.7081 11.2452 50.3631 11.9981 48.3483 13.1245C46.3332 14.2511 43.7291 15.7106 41.1112 17.1771C38.4933 18.6437 35.8616 20.1171 33.7925 21.2708C31.724 22.4242 30.1657 23.2838 29.8742 23.4327H29.8734H29.8729C29.3241 23.7125 28.8938 24.1916 28.7496 24.7235C28.6053 25.2559 28.7194 25.7336 28.8651 26.0936C29.1565 26.8135 29.6487 27.2705 29.6487 27.2705C29.8319 27.4546 30.0808 27.5582 30.3405 27.5588C30.6003 27.5594 30.8496 27.457 31.0337 27.2738C31.1249 27.183 31.1973 27.0751 31.2469 26.9564C31.2964 26.8376 31.322 26.7103 31.3223 26.5816C31.3226 26.453 31.2975 26.3256 31.2486 26.2066C31.1996 26.0876 31.1277 25.9795 31.0369 25.8883C31.0369 25.8883 30.7733 25.5867 30.681 25.3586C30.6348 25.2446 30.6498 25.201 30.6404 25.236C30.6309 25.271 30.569 25.2768 30.763 25.1781H30.7638C31.2161 24.9472 32.6746 24.137 34.7463 22.9819C36.8181 21.8267 39.4505 20.3526 42.0686 18.8859C44.6867 17.4192 47.2906 15.9598 49.3042 14.834C51.3177 13.7083 52.8216 12.8756 52.9722 12.7983H52.973C53.33 12.6145 53.5985 12.5337 53.6714 12.5338C53.7444 12.5338 53.7359 12.4656 53.9639 12.7943H53.9643C54.6348 13.7593 55.926 15.793 55.926 15.793C55.9949 15.9016 56.0845 15.9957 56.1898 16.0697C56.295 16.1437 56.4138 16.1962 56.5393 16.2243C56.6649 16.2524 56.7947 16.2555 56.9215 16.2335C57.0482 16.2114 57.1694 16.1646 57.278 16.0957C57.3867 16.0268 57.4807 15.9371 57.5547 15.8319C57.6287 15.7267 57.6813 15.6079 57.7094 15.4824C57.7375 15.3569 57.7406 15.227 57.7185 15.1003C57.6964 14.9735 57.6496 14.8524 57.5807 14.7438C57.5807 14.7438 56.3054 12.7302 55.5737 11.6769H55.5733C55.0999 10.995 54.354 10.5749 53.6726 10.5745L53.6726 10.5748Z"
            fill="#262D37" />
        <path
            d="M42.0642 24.8063C41.8313 24.7444 41.5838 24.7705 41.3689 24.8796L33.1508 29.0489C32.9244 29.1637 32.7514 29.3619 32.6682 29.6017C32.585 29.8416 32.5982 30.1043 32.705 30.3347L34.388 33.9628C34.4969 34.1977 34.6944 34.3798 34.9372 34.4696C35.1801 34.5593 35.4485 34.5493 35.684 34.4417C35.684 34.4417 37.8094 33.4705 39.9389 32.4288C41.0037 31.9079 42.0682 31.3708 42.8868 30.9172C43.2962 30.6904 43.6411 30.4876 43.9184 30.2976C44.057 30.2026 44.1773 30.1157 44.305 29.9941C44.3689 29.9333 44.4361 29.8662 44.5143 29.7482C44.5925 29.6301 44.7163 29.4434 44.698 29.0958C44.6806 28.7655 44.605 28.6418 44.5332 28.4703C44.4615 28.2988 44.3753 28.1242 44.277 27.937C44.0806 27.5627 43.8361 27.1438 43.5936 26.7432C43.1086 25.9419 42.631 25.2154 42.631 25.2154C42.4988 25.014 42.2971 24.8684 42.0642 24.8063ZM41.4592 27.0305C41.632 27.3012 41.6884 27.3796 41.9172 27.7577C42.1472 28.1377 42.3763 28.5321 42.54 28.8436C42.3633 28.9534 42.2 29.0579 41.9373 29.2034C41.1756 29.6255 40.1276 30.1555 39.0781 30.6689C37.4182 31.4809 36.3744 31.9553 35.7498 32.2431L34.8803 30.3682L41.4592 27.0305Z"
            fill="#262D37" />
        <path
            d="M56.7852 20.7519L44.4154 25.8009C44.1748 25.8991 43.9831 26.0888 43.8825 26.3283C43.7818 26.5678 43.7804 26.8374 43.8785 27.078C43.9767 27.3185 44.1664 27.5102 44.4059 27.6109C44.6454 27.7115 44.915 27.7129 45.1556 27.6148L57.5254 22.5658C57.6446 22.5171 57.753 22.4456 57.8445 22.3551C57.9359 22.2646 58.0087 22.1569 58.0585 22.0383C58.1084 21.9197 58.1344 21.7923 58.135 21.6636C58.1357 21.535 58.111 21.4074 58.0623 21.2883C57.964 21.0479 57.7743 20.8562 57.5348 20.7556C57.2953 20.655 57.0257 20.6537 56.7852 20.7519Z"
            fill="#262D37" />
        <path
            d="M58.9066 27.9044L37.1637 36.779C37.0445 36.8277 36.9361 36.8992 36.8446 36.9897C36.7532 37.0802 36.6804 37.1879 36.6306 37.3065C36.5807 37.4251 36.5547 37.5525 36.5541 37.6812C36.5534 37.8098 36.5782 37.9374 36.6268 38.0565C36.6755 38.1756 36.7471 38.2839 36.8376 38.3754C36.9281 38.4668 37.0358 38.5395 37.1544 38.5893C37.2731 38.6391 37.4003 38.6651 37.529 38.6657C37.6577 38.6664 37.7852 38.6416 37.9043 38.5929L59.6468 29.7183C59.8874 29.6201 60.079 29.4304 60.1797 29.1909C60.2804 28.9514 60.2818 28.6818 60.1837 28.4412C60.0855 28.2007 59.8958 28.009 59.6563 27.9083C59.4168 27.8077 59.1471 27.8062 58.9066 27.9044Z"
            fill="#262D37" />
        <path
            d="M60.7996 31.6561L39.0567 40.5312C38.8162 40.6293 38.6245 40.819 38.5238 41.0585C38.4231 41.298 38.4217 41.5677 38.5199 41.8082C38.618 42.0487 38.8077 42.2404 39.0472 42.3411C39.2867 42.4418 39.5564 42.4432 39.7969 42.345L61.5399 33.47C61.7804 33.3718 61.9721 33.1821 62.0728 32.9426C62.1734 32.7031 62.1749 32.4335 62.0767 32.1929C61.9785 31.9524 61.7889 31.7607 61.5494 31.66C61.3099 31.5594 61.0402 31.5579 60.7996 31.6561Z"
            fill="#262D37" />
        <path
            d="M108.092 88.8227C106.937 88.8543 105.814 89.1457 104.823 89.6478C102.179 90.9867 100.357 93.9458 101.285 97.2271C101.767 98.9281 103.087 99.9277 104.493 100.461C105.898 100.994 107.454 101.203 108.903 101.538C110.352 101.872 111.662 102.318 112.615 103.143C113.568 103.968 114.266 105.176 114.442 107.408C114.503 108.192 114.209 108.773 113.553 109.361C112.896 109.95 111.866 110.457 110.71 110.79C108.398 111.456 105.533 111.328 104.534 110.82C104.42 110.762 104.295 110.727 104.166 110.716C104.038 110.706 103.909 110.722 103.787 110.762C103.664 110.801 103.551 110.865 103.453 110.948C103.355 111.032 103.275 111.134 103.216 111.249C103.158 111.363 103.123 111.488 103.113 111.617C103.103 111.745 103.118 111.874 103.158 111.996C103.198 112.119 103.262 112.232 103.345 112.33C103.429 112.427 103.531 112.508 103.646 112.566C105.573 113.547 108.545 113.453 111.253 112.673C112.607 112.283 113.882 111.697 114.86 110.82C115.838 109.943 116.507 108.686 116.395 107.255C116.19 104.647 115.244 102.827 113.897 101.662C112.55 100.496 110.902 99.9877 109.343 99.6282C107.785 99.2688 106.283 99.0446 105.188 98.629C104.093 98.2135 103.47 97.7491 103.171 96.6938C102.501 94.3278 103.737 92.3936 105.708 91.3951C107.679 90.3965 110.268 90.4533 112.283 92.4454C112.468 92.6281 112.717 92.7299 112.977 92.7285C113.237 92.727 113.486 92.6224 113.668 92.4378C113.851 92.2531 113.953 92.0034 113.951 91.7436C113.95 91.4839 113.845 91.2353 113.661 91.0526C112.028 89.4385 110.016 88.77 108.092 88.8227Z"
            fill="#262D37" />
        <path
            d="M105.025 84.7886C104.771 84.842 104.548 84.9942 104.406 85.2117C104.264 85.4293 104.214 85.6942 104.268 85.9485C104.268 85.9485 109.513 110.945 110.575 117.4C110.596 117.527 110.642 117.648 110.71 117.758C110.778 117.867 110.867 117.962 110.971 118.037C111.076 118.112 111.194 118.165 111.319 118.195C111.445 118.224 111.574 118.228 111.701 118.207C111.828 118.186 111.95 118.141 112.059 118.073C112.168 118.005 112.263 117.916 112.338 117.812C112.413 117.707 112.467 117.589 112.496 117.463C112.525 117.338 112.53 117.208 112.509 117.081C111.411 110.41 106.185 85.5457 106.185 85.5457C106.159 85.4198 106.108 85.3004 106.035 85.1942C105.963 85.088 105.87 84.9971 105.762 84.9268C105.654 84.8565 105.534 84.8081 105.407 84.7844C105.281 84.7607 105.151 84.7621 105.025 84.7886Z"
            fill="#262D37" />
        <mask id="mask3_55_9172" style="mask-type:luminance" maskUnits="userSpaceOnUse" x="9" y="-1074" width="422" height="2383">
            <path d="M430.702 1308.24L430.702 -1073.03H9.39734L9.39734 1308.24H430.702Z" fill="white" />
        </mask>
        <g mask="url(#mask3_55_9172)">
            <path fill-rule="evenodd" clip-rule="evenodd"
                d="M204.062 38.7742L205.756 39.0392L205.146 41.7859L174.124 36.9691L174.539 34.1643L176.954 34.5417L179.227 19.0064L177.027 18.6981L194.586 9.82104L208.936 23.1774L206.398 22.8218L204.062 38.7742ZM179.956 35.0097L184.321 35.6919L186.611 20.0424L182.237 19.4292L179.956 35.0097ZM187.836 36.2416L192.835 37.0217L195.145 21.2416L190.134 20.5377L187.836 36.2416ZM196.293 37.5624L200.579 38.2318L202.906 22.3302L198.61 21.7278L196.293 37.5624Z"
                fill="#262D37" />
        </g>
        <path
            d="M188.001 85.4283C186.509 85.3859 185.252 85.8874 184.472 86.6676C184.288 86.8513 184.185 87.1004 184.185 87.3602C184.185 87.6199 184.288 87.8691 184.472 88.0528C184.563 88.1438 184.671 88.216 184.79 88.2653C184.909 88.3145 185.036 88.3399 185.165 88.3399C185.294 88.3399 185.421 88.3145 185.54 88.2653C185.659 88.216 185.767 88.1438 185.858 88.0528C186.065 87.846 187.02 87.3602 187.945 87.3865C188.87 87.4127 189.786 87.749 190.539 89.0984C190.665 89.3252 190.877 89.4926 191.127 89.5635C191.377 89.6345 191.644 89.6032 191.871 89.4767C192.098 89.3501 192.265 89.1386 192.336 88.8887C192.407 88.6388 192.376 88.371 192.25 88.1441C191.198 86.2584 189.492 85.4706 188.001 85.4283Z"
            fill="#262D37" />
        <path
            d="M174.841 76.2499C174.584 76.2076 174.322 76.2689 174.111 76.4201C173.9 76.5714 173.757 76.8003 173.715 77.0565C173.672 77.3128 173.733 77.5755 173.885 77.7867C173.885 77.7867 178.02 83.8369 183.912 84.3635C184.04 84.3749 184.169 84.361 184.292 84.3226C184.415 84.2841 184.529 84.2218 184.628 84.1393C184.726 84.0567 184.808 83.9555 184.867 83.8415C184.927 83.7275 184.963 83.6029 184.975 83.4748C184.986 83.3466 184.972 83.2175 184.934 83.0947C184.896 82.972 184.833 82.858 184.751 82.7593C184.668 82.6606 184.567 82.5792 184.453 82.5196C184.339 82.46 184.214 82.4234 184.086 82.4119C179.511 82.003 175.477 76.6459 175.477 76.6459C175.402 76.5413 175.308 76.4525 175.198 76.3845C175.089 76.3166 174.968 76.2708 174.841 76.2499Z"
            fill="#262D37" />
        <path
            d="M171.993 71.956C171.872 71.9122 171.744 71.8926 171.615 71.8985C171.487 71.9043 171.361 71.9355 171.244 71.9901C171.128 72.0447 171.023 72.1216 170.936 72.2167C170.849 72.3117 170.782 72.4228 170.739 72.5438C170.739 72.5438 170.026 74.4973 170.382 76.9338C170.739 79.3702 172.26 82.364 176.305 84.2739C176.54 84.3848 176.81 84.3978 177.054 84.3101C177.299 84.2223 177.498 84.0411 177.609 83.8061C177.72 83.5712 177.733 83.3019 177.645 83.0574C177.558 82.8128 177.376 82.6132 177.141 82.5023C173.614 80.8368 172.603 78.5753 172.321 76.6501C172.039 74.725 172.581 73.2106 172.581 73.2106C172.625 73.0896 172.644 72.9611 172.639 72.8326C172.633 72.7041 172.602 72.5781 172.547 72.4616C172.492 72.3451 172.415 72.2404 172.32 72.1536C172.225 72.0669 172.114 71.9998 171.993 71.956Z"
            fill="#262D37" />
        <path
            d="M180.929 76.2399C180.801 76.2297 180.671 76.2448 180.549 76.2844C180.427 76.3241 180.313 76.3875 180.215 76.471C180.017 76.6395 179.895 76.8797 179.874 77.1387C179.854 77.3976 179.937 77.6541 180.105 77.8518C180.105 77.8518 188.779 88.2542 199.264 88.864C199.261 89.2393 199.246 89.7024 199.268 90.3056C199.319 91.7203 199.554 93.5939 200.749 95.1691C200.851 95.3039 200.986 95.4099 201.142 95.4768C201.298 95.5436 201.468 95.5691 201.636 95.5506C201.804 95.5321 201.965 95.4704 202.102 95.3713C202.239 95.2723 202.349 95.1393 202.419 94.9854C202.419 94.9854 203.02 93.6899 203.907 92.5159C204.35 91.9289 204.865 91.3868 205.335 91.0733C205.805 90.76 206.147 90.6806 206.486 90.7734C207.932 91.1701 208.644 92.5223 208.763 94.168C208.882 95.8136 208.221 97.5338 207.401 98.1198C204.518 100.179 202.19 99.1032 202.19 99.1032C202.071 99.0533 201.944 99.0274 201.815 99.0267C201.687 99.026 201.559 99.0508 201.44 99.0994C201.321 99.148 201.212 99.2196 201.121 99.3101C201.029 99.4006 200.957 99.5083 200.907 99.627C200.806 99.8664 200.805 100.136 200.903 100.376C201.001 100.617 201.191 100.809 201.43 100.909C201.43 100.909 204.939 102.287 208.54 99.7135H208.541C210.225 98.5093 210.875 96.2134 210.717 94.0264C210.559 91.8395 209.405 89.5429 207.005 88.8841C205.995 88.6073 205.009 88.9367 204.248 89.4442C203.487 89.9517 202.867 90.6429 202.343 91.3354C202.028 91.7527 201.831 92.1146 201.593 92.502C201.361 91.7536 201.253 90.9637 201.226 90.2358C201.204 89.6139 201.226 89.0595 201.222 88.6005C201.22 88.371 201.221 88.1755 201.169 87.9203C201.142 87.7927 201.112 87.6408 200.967 87.4305C200.822 87.2201 200.439 86.963 200.087 86.9613H200.091C190.6 86.8813 181.597 76.5819 181.597 76.5819C181.513 76.4839 181.411 76.4034 181.297 76.3448C181.182 76.2862 181.057 76.2507 180.929 76.2404V76.2399Z"
            fill="#262D37" />
        <path
            d="M180.349 63.7602C178.961 63.7931 177.567 63.9528 176.212 64.2467C173.504 64.8345 170.949 65.9846 169.004 67.8522C167.058 69.7198 165.761 72.3219 165.597 75.5903C165.415 79.2291 167.367 81.8641 169.276 83.4896C170.698 84.7005 171.875 85.2746 172.522 85.5631C172.529 86.1005 172.576 89.9595 172.661 94.6534C172.707 97.1581 172.761 99.7422 172.821 101.862C172.88 103.982 172.938 105.586 173.018 106.331C174.162 116.995 187.769 123.759 198.467 115.055C198.668 114.891 198.796 114.654 198.823 114.396C198.85 114.137 198.772 113.879 198.608 113.677C198.444 113.476 198.207 113.348 197.949 113.321C197.69 113.295 197.432 113.372 197.23 113.536C187.532 121.426 175.944 115.241 174.966 106.122C174.91 105.603 174.838 103.915 174.779 101.807C174.72 99.6983 174.666 97.1185 174.62 94.6175C174.529 89.6155 174.472 84.9279 174.472 84.9279C174.469 84.7314 174.408 84.5402 174.295 84.379C174.183 84.2179 174.025 84.0943 173.841 84.0244C173.841 84.0244 172.178 83.3864 170.546 81.9973C168.915 80.6082 167.408 78.5927 167.554 75.6879C167.695 72.8719 168.747 70.8148 170.361 69.2651C171.975 67.7154 174.189 66.6901 176.628 66.1609C181.504 65.1025 187.237 66.1272 190.214 68.265C190.389 68.3906 190.601 68.455 190.817 68.4482C196.272 68.2763 201.673 69.6391 205.496 72.1316C209.319 74.6241 211.553 78.1046 211.085 82.5124C211.066 82.6941 211.098 82.8775 211.178 83.0419C211.257 83.2064 211.381 83.3454 211.535 83.4432C211.535 83.4432 212.777 84.2295 213.566 85.9453C214.354 87.6611 214.721 90.2561 212.524 94.1784C208.811 100.807 206.818 104.821 205.48 106.92C204.812 107.969 204.305 108.494 204.002 108.664C203.7 108.834 203.537 108.842 202.953 108.637C202.708 108.551 202.439 108.566 202.205 108.679C201.97 108.792 201.791 108.992 201.705 109.238C201.662 109.359 201.644 109.488 201.651 109.616C201.658 109.745 201.691 109.87 201.746 109.986C201.802 110.102 201.88 110.206 201.976 110.292C202.072 110.377 202.184 110.443 202.305 110.486C203.161 110.786 204.137 110.836 204.962 110.372C205.788 109.908 206.4 109.123 207.133 107.972C208.599 105.672 210.539 101.73 214.233 95.136C216.667 90.7907 216.375 87.3654 215.346 85.1274C214.557 83.412 213.568 82.5717 213.049 82.1762C213.354 77.238 210.665 73.1626 206.566 70.4906C202.391 67.7682 196.772 66.3657 191.06 66.4909C188.32 64.6465 184.373 63.6645 180.349 63.7598V63.7602Z"
            fill="#262D37" />
        <path
            d="M203.463 99.3442C203.335 99.3324 203.206 99.346 203.083 99.3841C202.96 99.4223 202.846 99.4842 202.747 99.5665C202.648 99.6488 202.566 99.7497 202.506 99.8635C202.446 99.9774 202.41 100.102 202.398 100.23C202.398 100.23 201.6 108.88 201.229 116.429C201.216 116.689 201.307 116.943 201.481 117.135C201.656 117.328 201.9 117.443 202.159 117.456C202.419 117.469 202.673 117.378 202.865 117.203C203.058 117.029 203.173 116.785 203.186 116.526C203.553 109.041 204.349 100.41 204.349 100.41C204.361 100.282 204.347 100.153 204.309 100.03C204.271 99.9067 204.209 99.7925 204.127 99.6935C204.044 99.5945 203.944 99.5127 203.83 99.4528C203.716 99.3928 203.591 99.356 203.463 99.3442ZM202.084 119.319C201.824 119.312 201.573 119.409 201.384 119.588C201.196 119.766 201.086 120.013 201.079 120.272C201.037 121.881 201.029 123.337 201.075 124.531C201.068 124.349 201.051 124.737 200.977 125.171C200.903 125.605 200.79 126.213 200.647 126.975C200.36 128.499 199.95 130.647 199.469 133.334C198.506 138.71 197.259 146.251 196.139 155.354C193.899 173.561 192.165 198.015 194.235 223.928C194.245 224.056 194.28 224.181 194.339 224.296C194.398 224.41 194.478 224.512 194.576 224.596C194.674 224.679 194.787 224.742 194.91 224.782C195.032 224.822 195.161 224.837 195.289 224.826C195.548 224.806 195.788 224.683 195.957 224.485C196.125 224.287 196.208 224.031 196.188 223.772C194.133 198.044 195.854 173.71 198.083 155.594C199.198 146.535 200.439 139.031 201.397 133.68C201.876 131.004 202.285 128.867 202.572 127.337C202.716 126.572 202.83 125.959 202.908 125.5C202.986 125.04 203.048 124.86 203.033 124.456C202.99 123.332 202.996 121.908 203.038 120.324C203.041 120.196 203.019 120.068 202.973 119.947C202.927 119.827 202.858 119.717 202.769 119.624C202.681 119.531 202.575 119.456 202.457 119.403C202.339 119.351 202.213 119.322 202.084 119.319Z"
            fill="#262D37" />
        <path
            d="M188.748 101.404C188.487 101.461 188.237 101.573 188.035 101.725C187.888 101.835 186.879 102.409 185.636 102.803C184.393 103.197 182.85 103.469 181.363 103.274H181.365C181.097 103.238 180.731 103.297 180.458 103.5C180.186 103.702 180.052 103.978 179.991 104.199C179.869 104.64 179.929 104.974 180.011 105.337C180.174 106.065 180.541 106.878 181.084 107.688C181.628 108.497 182.349 109.292 183.276 109.84C184.203 110.388 185.386 110.664 186.603 110.327C189.716 109.467 191.045 106.977 191.174 104.943C191.239 103.927 191.072 103.01 190.607 102.283C190.375 101.919 190.039 101.572 189.536 101.422C189.285 101.347 189.011 101.347 188.748 101.404L188.748 101.404ZM188.986 103.423C189.11 103.663 189.259 104.192 189.219 104.82C189.133 106.178 188.437 107.788 186.081 108.439C186.081 108.439 186.08 108.439 186.08 108.439C185.412 108.624 184.854 108.498 184.272 108.154C183.69 107.81 183.131 107.223 182.711 106.596C182.392 106.121 182.187 105.656 182.052 105.273C183.587 105.324 185.037 105.049 186.228 104.671C187.524 104.26 188.413 103.809 188.986 103.423Z"
            fill="#262D37" />
        <path
            d="M173.445 83.9625C173.185 83.975 172.942 84.09 172.767 84.2823C172.592 84.4747 172.501 84.7285 172.514 84.988C172.52 85.1165 172.551 85.2425 172.606 85.3589C172.661 85.4753 172.738 85.5796 172.834 85.6661C172.929 85.7526 173.04 85.8195 173.161 85.8629C173.283 85.9064 173.411 85.9255 173.54 85.9192C175.372 85.8307 176.663 86.1728 177.489 86.5167C178.316 86.8605 178.609 87.1485 178.609 87.1485C178.704 87.2356 178.815 87.3032 178.936 87.3474C179.057 87.3916 179.185 87.4115 179.314 87.4061C179.442 87.4007 179.568 87.37 179.685 87.3158C179.802 87.2616 179.907 87.1849 179.994 87.0902C180.081 86.9954 180.148 86.8845 180.192 86.7637C180.237 86.6429 180.257 86.5145 180.251 86.386C180.246 86.2574 180.215 86.1312 180.161 86.0145C180.107 85.8979 180.03 85.793 179.935 85.7059C179.935 85.7059 179.316 85.1548 178.241 84.7077C177.167 84.2606 175.568 83.86 173.445 83.9625Z"
            fill="#262D37" />
        <path
            d="M180.202 86.6074C180.082 86.6552 179.973 86.726 179.881 86.8159C179.789 86.9058 179.716 87.013 179.665 87.1312C179.615 87.2495 179.588 87.3766 179.586 87.5053C179.585 87.6339 179.609 87.7617 179.656 87.8811C179.619 87.7882 179.684 87.9907 179.717 88.2437C179.749 88.4966 179.78 88.8435 179.799 89.2515C179.839 90.0674 179.837 91.1311 179.751 92.2629C179.579 94.5265 179.017 97.067 178.007 98.4417C177.628 98.9566 177.461 99.6701 177.664 100.275C177.868 100.88 178.322 101.287 178.828 101.578C179.84 102.158 181.211 102.385 182.808 102.302C183.067 102.289 183.31 102.173 183.484 101.98C183.658 101.787 183.748 101.533 183.735 101.273C183.728 101.145 183.696 101.019 183.641 100.903C183.586 100.787 183.508 100.683 183.412 100.596C183.317 100.51 183.205 100.444 183.084 100.401C182.963 100.358 182.834 100.339 182.706 100.346C181.383 100.415 180.285 100.155 179.803 99.8781C179.561 99.7397 179.513 99.6257 179.521 99.6509C179.53 99.6762 179.476 99.7509 179.585 99.6021C181.026 97.6414 181.519 94.8539 181.705 92.4112C181.797 91.1899 181.8 90.0565 181.756 89.1568C181.734 88.7069 181.701 88.3161 181.66 87.993C181.618 87.67 181.598 87.458 181.475 87.1526C181.428 87.0332 181.357 86.9243 181.267 86.8323C181.177 86.7402 181.07 86.6667 180.951 86.6161C180.833 86.5655 180.706 86.5387 180.577 86.5372C180.449 86.5357 180.321 86.5595 180.202 86.6074Z"
            fill="#262D37" />
        <mask id="mask4_55_9172" style="mask-type:luminance" maskUnits="userSpaceOnUse" x="-27" y="-1452" width="608" height="3216">
            <path d="M580.868 1763.35L580.868 -1451.05H-26.5642L-26.5642 1763.35H580.868Z" fill="white" />
        </mask>
        <g mask="url(#mask4_55_9172)">
            <path fill-rule="evenodd" clip-rule="evenodd"
                d="M188.484 92.2876C188.484 92.7245 188.387 93.1435 188.213 93.4525C188.04 93.7614 187.804 93.935 187.558 93.935C187.313 93.935 187.077 93.7614 186.904 93.4525C186.73 93.1435 186.632 92.7245 186.632 92.2876C186.632 91.8506 186.73 91.4316 186.904 91.1226C187.077 90.8137 187.313 90.6401 187.558 90.6401C187.804 90.6401 188.04 90.8137 188.213 91.1226C188.387 91.4316 188.484 91.8506 188.484 92.2876Z"
                fill="#262D37" />
        </g>
        <mask id="mask5_55_9172" style="mask-type:luminance" maskUnits="userSpaceOnUse" x="-27" y="-1452" width="608" height="3216">
            <path d="M580.868 1763.35L580.868 -1451.05H-26.5642L-26.5642 1763.35H580.868Z" fill="white" />
        </mask>
        <g mask="url(#mask5_55_9172)">
            <path fill-rule="evenodd" clip-rule="evenodd"
                d="M177.783 92.2873C177.783 92.7242 177.685 93.1433 177.511 93.4522C177.338 93.7612 177.102 93.9347 176.857 93.9347C176.611 93.9347 176.376 93.7612 176.202 93.4522C176.028 93.1433 175.931 92.7242 175.931 92.2873C175.931 91.8504 176.028 91.4313 176.202 91.1224C176.376 90.8134 176.611 90.6399 176.857 90.6399C177.102 90.6399 177.338 90.8134 177.511 91.1224C177.685 91.4313 177.783 91.8504 177.783 92.2873Z"
                fill="#262D37" />
        </g>
        <path
            d="M183.652 116.515C183.523 116.518 183.396 116.546 183.279 116.598C183.161 116.65 183.055 116.724 182.966 116.817C182.877 116.91 182.807 117.02 182.76 117.14C182.714 117.26 182.691 117.388 182.694 117.516C182.694 117.516 182.714 118.38 182.694 119.398C182.675 120.387 182.59 121.534 182.49 121.983C182.478 122.006 182.475 122.019 182.45 122.054C182.36 122.179 182.208 122.378 182.02 122.643C181.645 123.174 181.128 123.976 180.538 125.176C179.36 127.576 177.881 131.576 176.487 138.418C173.699 152.101 171.239 177.169 172.282 223.639C172.285 223.768 172.313 223.895 172.365 224.012C172.417 224.13 172.491 224.237 172.584 224.325C172.678 224.414 172.787 224.484 172.907 224.531C173.027 224.577 173.155 224.6 173.284 224.597C173.412 224.594 173.539 224.566 173.657 224.514C173.774 224.462 173.881 224.387 173.97 224.294C174.059 224.201 174.128 224.092 174.175 223.972C174.221 223.852 174.244 223.724 174.241 223.595C173.199 177.21 175.667 152.254 178.407 138.809C179.777 132.087 181.212 128.247 182.297 126.039C182.839 124.935 183.29 124.242 183.621 123.774C183.786 123.539 183.921 123.364 184.04 123.198C184.159 123.033 184.29 122.914 184.385 122.537C184.6 121.674 184.632 120.501 184.653 119.437C184.673 118.372 184.653 117.473 184.653 117.473C184.647 117.213 184.538 116.966 184.351 116.787C184.163 116.607 183.911 116.51 183.652 116.516V116.515Z"
            fill="#262D37" />
        <path
            d="M159.587 148.234C159.461 148.21 159.331 148.21 159.205 148.236C159.079 148.262 158.959 148.313 158.853 148.385C158.746 148.457 158.655 148.55 158.584 148.657C158.514 148.765 158.465 148.885 158.44 149.012C158.44 149.012 156.589 158.67 155.19 176.998C155.17 177.257 155.254 177.513 155.423 177.71C155.592 177.908 155.833 178.03 156.092 178.049C156.351 178.069 156.607 177.985 156.804 177.816C157.002 177.647 157.123 177.406 157.143 177.147C158.537 158.898 160.364 149.381 160.364 149.381C160.389 149.254 160.388 149.125 160.362 148.999C160.336 148.873 160.285 148.753 160.213 148.646C160.141 148.54 160.049 148.449 159.941 148.378C159.834 148.307 159.713 148.258 159.587 148.234ZM154.622 220.723C154.362 220.724 154.113 220.827 153.93 221.011C153.747 221.195 153.644 221.445 153.645 221.704C153.646 222.134 153.957 222.697 154.358 222.969C154.76 223.24 155.22 223.387 155.885 223.534C157.214 223.828 159.389 224.061 163.2 224.259C170.821 224.655 184.932 224.882 211.06 224.842C211.189 224.841 211.316 224.816 211.435 224.767C211.554 224.717 211.662 224.645 211.752 224.554C211.843 224.463 211.915 224.355 211.964 224.236C212.013 224.117 212.039 223.989 212.038 223.861C212.038 223.601 211.934 223.352 211.75 223.168C211.566 222.985 211.317 222.882 211.057 222.882C184.941 222.923 170.836 222.694 163.302 222.303C159.534 222.107 157.397 221.862 156.308 221.622C155.763 221.501 155.489 221.367 155.456 221.345C155.39 221.174 155.276 221.024 155.129 220.914C154.981 220.804 154.805 220.738 154.622 220.723Z"
            fill="#262D37" />
        <path
            d="M202.25 122.191C201.997 122.131 201.731 122.174 201.51 122.311C201.289 122.447 201.131 122.666 201.071 122.919C201.012 123.172 201.055 123.438 201.191 123.659C201.328 123.88 201.546 124.038 201.799 124.097C202.91 124.36 204.94 124.642 207.675 125.295C210.41 125.947 213.796 126.955 217.394 128.604C224.588 131.903 232.613 137.741 238.041 148.515C240.24 152.881 242.686 161.263 244.429 169.296C245.3 173.312 246.004 177.253 246.438 180.586C246.872 183.919 247.022 186.68 246.845 188.149C245.672 197.882 243.46 205.93 241.446 211.655C240.439 214.517 239.482 216.798 238.732 218.415C238.357 219.223 238.034 219.866 237.785 220.326C237.607 220.657 237.534 220.761 237.465 220.87C237.234 220.854 236.834 220.78 236.341 220.635C235.344 220.341 233.962 219.774 232.455 218.965C229.516 217.386 226.099 214.867 223.735 211.7C223.846 211.444 224.092 211.007 224.417 210.463C225.067 209.376 226.036 207.832 227.003 205.882C228.936 201.982 230.874 196.419 230.406 189.375C230.266 187.282 228.972 185.195 227.269 182.766C225.567 180.336 223.397 177.59 221.289 174.456C217.073 168.188 213.128 160.429 213.652 150.751C213.659 150.622 213.641 150.494 213.598 150.372C213.555 150.251 213.489 150.139 213.403 150.044C213.317 149.948 213.213 149.87 213.097 149.814C212.981 149.759 212.856 149.726 212.727 149.72C212.468 149.705 212.213 149.795 212.02 149.968C211.826 150.142 211.71 150.385 211.696 150.645C211.14 160.911 215.345 169.129 219.663 175.549C221.822 178.759 224.015 181.534 225.665 183.89C227.316 186.245 228.364 188.204 228.451 189.505C228.891 196.126 227.084 201.307 225.247 205.012C224.329 206.864 223.405 208.338 222.735 209.458C222.401 210.017 222.129 210.481 221.938 210.919C221.843 211.138 221.763 211.349 221.725 211.615C221.688 211.882 221.7 212.269 221.949 212.613C224.567 216.243 228.311 218.964 231.528 220.691C233.136 221.555 234.61 222.168 235.787 222.515C236.376 222.688 236.886 222.798 237.352 222.828C237.817 222.858 238.354 222.936 238.856 222.323C239.081 222.048 239.237 221.761 239.51 221.256C239.782 220.752 240.12 220.078 240.509 219.24C241.287 217.562 242.267 215.226 243.294 212.305C245.35 206.462 247.598 198.28 248.791 188.384C249.014 186.527 248.824 183.739 248.381 180.333C247.937 176.928 247.225 172.943 246.344 168.881C244.581 160.756 242.175 152.368 239.791 147.634C234.141 136.419 225.702 130.259 218.211 126.824C214.465 125.107 210.953 124.063 208.13 123.389C205.307 122.716 203.12 122.397 202.25 122.191V122.191Z"
            fill="#262D37" />
        <path
            d="M206.964 181.387C206.836 181.353 206.702 181.345 206.57 181.364C206.438 181.382 206.312 181.428 206.198 181.497C206.085 181.567 205.986 181.659 205.91 181.767C205.833 181.876 205.779 181.999 205.751 182.129L197.873 219.108C197.822 219.349 197.863 219.6 197.988 219.811C198.114 220.023 198.314 220.18 198.55 220.25L210.756 223.909C211.005 223.984 211.273 223.956 211.502 223.833C211.73 223.71 211.901 223.501 211.976 223.252C212.012 223.129 212.025 223 212.012 222.872C211.999 222.744 211.961 222.62 211.9 222.506C211.839 222.393 211.756 222.293 211.656 222.212C211.556 222.13 211.442 222.07 211.318 222.033L199.977 218.633L207.452 183.548L228.992 189.362C229.116 189.396 229.246 189.404 229.373 189.388C229.501 189.371 229.624 189.33 229.735 189.265C229.847 189.201 229.945 189.116 230.023 189.014C230.102 188.912 230.159 188.796 230.193 188.671C230.226 188.547 230.235 188.418 230.219 188.29C230.202 188.162 230.16 188.039 230.096 187.928C230.032 187.816 229.947 187.719 229.845 187.64C229.743 187.562 229.626 187.504 229.502 187.47L206.964 181.387ZM247.365 192.293C247.114 192.225 246.847 192.26 246.622 192.389C246.397 192.519 246.232 192.732 246.165 192.983C246.097 193.234 246.132 193.501 246.261 193.726C246.39 193.952 246.604 194.116 246.855 194.184L256.624 196.82L247.21 232.791L225.999 226.434C225.751 226.359 225.482 226.386 225.254 226.509C225.025 226.633 224.854 226.841 224.78 227.09C224.743 227.214 224.73 227.343 224.744 227.471C224.757 227.599 224.795 227.723 224.856 227.836C224.917 227.95 224.999 228.05 225.099 228.131C225.199 228.212 225.314 228.273 225.437 228.31L247.62 234.959C247.746 234.997 247.878 235.009 248.009 234.994C248.14 234.98 248.266 234.939 248.381 234.875C248.496 234.81 248.596 234.723 248.677 234.619C248.757 234.515 248.816 234.396 248.849 234.269L258.765 196.376C258.83 196.126 258.794 195.86 258.665 195.636C258.535 195.413 258.322 195.25 258.072 195.182L247.365 192.293Z"
            fill="#262D37" />
        <path
            d="M217.988 217.82C217.739 217.895 217.53 218.065 217.407 218.294C217.184 218.707 216.472 219.481 215.399 220.14C214.326 220.8 212.898 221.383 211.215 221.634C211.214 221.634 211.213 221.634 211.213 221.634C210.754 221.704 210.462 221.992 210.289 222.267C210.117 222.543 210.035 222.843 210.011 223.162C209.963 223.8 210.158 224.521 210.642 225.271C211.61 226.772 213.707 228.404 217.945 229.892C218.19 229.978 218.459 229.963 218.693 229.851C218.927 229.738 219.107 229.537 219.193 229.292C219.28 229.047 219.265 228.778 219.152 228.544C219.04 228.309 218.839 228.129 218.594 228.043C214.595 226.639 212.89 225.142 212.288 224.209C212.065 223.864 212.009 223.634 211.988 223.473C213.734 223.147 215.243 222.536 216.425 221.809C217.718 221.013 218.64 220.136 219.132 219.222C219.255 218.994 219.282 218.725 219.207 218.477C219.133 218.228 218.962 218.019 218.734 217.895C218.505 217.772 218.237 217.745 217.988 217.82L217.988 217.82ZM211.509 223.571C211.508 223.571 211.508 223.571 211.506 223.571H211.504C211.506 223.571 211.507 223.571 211.509 223.571Z"
            fill="#262D37" />
        <path
            d="M231.974 219.003C231.849 219.036 231.732 219.092 231.63 219.17C231.527 219.247 231.441 219.344 231.375 219.455C231.375 219.455 230.051 221.706 227.968 223.982C225.886 226.258 223.073 228.433 220.376 228.536C220.117 228.546 219.872 228.658 219.695 228.849C219.519 229.039 219.425 229.292 219.435 229.552C219.444 229.811 219.557 230.056 219.748 230.233C219.938 230.409 220.191 230.503 220.451 230.493C224.085 230.356 227.175 227.75 229.413 225.304C231.651 222.859 233.065 220.447 233.065 220.447C233.196 220.223 233.234 219.956 233.168 219.705C233.103 219.453 232.94 219.238 232.716 219.107C232.492 218.975 232.225 218.938 231.974 219.003Z"
            fill="#262D37" />
        <path
            d="M222.802 211.388C222.546 211.433 222.318 211.578 222.17 211.791C222.107 211.881 221.294 212.638 220.496 213.192C220.097 213.469 219.686 213.727 219.34 213.917C218.994 214.106 218.674 214.219 218.665 214.221C217.327 214.475 215.665 214.525 214.358 215.906C213.247 217.078 212.273 217.539 211.502 217.847C211.117 218.001 210.791 218.096 210.429 218.29C210.249 218.386 210.038 218.514 209.85 218.77C209.663 219.026 209.566 219.423 209.605 219.73C209.71 220.573 210.27 220.836 210.755 221.086C211.241 221.336 211.818 221.522 212.468 221.656C213.768 221.923 215.347 221.984 216.793 221.521C217.041 221.441 217.246 221.267 217.365 221.036C217.484 220.805 217.506 220.536 217.427 220.289C217.388 220.166 217.325 220.053 217.242 219.955C217.158 219.857 217.057 219.776 216.942 219.717C216.828 219.658 216.703 219.622 216.575 219.612C216.447 219.601 216.317 219.616 216.195 219.655C215.22 219.968 213.891 219.948 212.863 219.737C212.664 219.695 212.564 219.636 212.392 219.584C213.277 219.218 214.509 218.595 215.781 217.253H215.781C216.528 216.464 217.509 216.435 219.031 216.146C219.49 216.058 219.851 215.871 220.28 215.636C220.709 215.401 221.166 215.111 221.612 214.801C222.505 214.182 223.287 213.612 223.775 212.913C223.924 212.7 223.982 212.437 223.936 212.181C223.891 211.926 223.746 211.699 223.533 211.55C223.427 211.476 223.308 211.424 223.183 211.396C223.057 211.368 222.927 211.366 222.801 211.388L222.802 211.388Z"
            fill="#262D37" />
        <path
            d="M207.658 179.557C207.408 179.488 207.14 179.521 206.914 179.649C206.688 179.777 206.522 179.99 206.453 180.24C206.419 180.364 206.409 180.494 206.425 180.621C206.441 180.749 206.481 180.872 206.545 180.984C206.608 181.096 206.693 181.194 206.795 181.274C206.896 181.353 207.012 181.411 207.136 181.445L228.088 187.234C228.338 187.304 228.605 187.27 228.831 187.142C229.057 187.014 229.223 186.802 229.292 186.551C229.327 186.427 229.336 186.298 229.32 186.17C229.305 186.043 229.264 185.919 229.201 185.807C229.137 185.695 229.052 185.597 228.951 185.518C228.849 185.439 228.733 185.38 228.609 185.346L207.658 179.557ZM247.636 190.602C247.385 190.533 247.118 190.566 246.892 190.694C246.666 190.822 246.5 191.034 246.431 191.285C246.396 191.409 246.387 191.538 246.403 191.666C246.418 191.794 246.459 191.917 246.523 192.029C246.586 192.141 246.671 192.239 246.772 192.318C246.874 192.397 246.99 192.456 247.114 192.49L257.556 195.375C257.807 195.444 258.074 195.411 258.3 195.283C258.526 195.155 258.692 194.942 258.761 194.692C258.796 194.568 258.805 194.438 258.789 194.311C258.774 194.183 258.733 194.06 258.669 193.948C258.606 193.836 258.521 193.737 258.42 193.658C258.318 193.579 258.202 193.521 258.078 193.486L247.636 190.602Z"
            fill="#262D37" />
        <path
            d="M208.126 177.685C208.002 177.651 207.873 177.641 207.745 177.657C207.617 177.673 207.494 177.713 207.382 177.777C207.27 177.84 207.172 177.925 207.093 178.027C207.013 178.128 206.955 178.244 206.921 178.368C206.886 178.492 206.877 178.622 206.893 178.749C206.909 178.877 206.949 179 207.013 179.112C207.076 179.224 207.161 179.322 207.263 179.402C207.364 179.481 207.48 179.539 207.604 179.573L226.584 184.817C226.835 184.886 227.102 184.852 227.328 184.724C227.554 184.596 227.72 184.383 227.789 184.133C227.858 183.883 227.825 183.615 227.697 183.389C227.569 183.163 227.356 182.997 227.106 182.928L208.126 177.685ZM247.908 188.676C247.657 188.606 247.39 188.64 247.164 188.768C246.938 188.896 246.772 189.109 246.703 189.359C246.634 189.609 246.667 189.877 246.795 190.103C246.923 190.329 247.136 190.495 247.386 190.564L258.025 193.503C258.275 193.572 258.543 193.539 258.769 193.411C258.994 193.282 259.16 193.07 259.23 192.82C259.264 192.696 259.273 192.566 259.258 192.438C259.242 192.311 259.201 192.187 259.138 192.075C259.074 191.963 258.989 191.865 258.888 191.786C258.786 191.707 258.67 191.649 258.546 191.614L247.908 188.676Z"
            fill="#262D37" />
        <path
            d="M208.861 175.738C208.737 175.703 208.608 175.694 208.48 175.71C208.352 175.726 208.229 175.766 208.117 175.83C208.005 175.893 207.907 175.978 207.827 176.08C207.748 176.181 207.69 176.297 207.656 176.421C207.587 176.672 207.62 176.939 207.748 177.165C207.876 177.391 208.089 177.557 208.339 177.626L224.664 182.137C224.915 182.206 225.182 182.173 225.408 182.045C225.634 181.917 225.8 181.704 225.869 181.454C225.904 181.33 225.913 181.201 225.897 181.073C225.882 180.945 225.841 180.822 225.777 180.71C225.714 180.598 225.629 180.5 225.528 180.421C225.426 180.341 225.31 180.283 225.186 180.249L208.861 175.738ZM248.138 186.589C247.888 186.52 247.62 186.553 247.394 186.681C247.168 186.81 247.002 187.022 246.933 187.273C246.864 187.523 246.897 187.791 247.025 188.017C247.154 188.243 247.366 188.408 247.617 188.478L258.76 191.556C259.01 191.625 259.278 191.592 259.504 191.464C259.73 191.336 259.895 191.123 259.965 190.873C260.034 190.622 260.001 190.354 259.872 190.129C259.744 189.903 259.532 189.737 259.281 189.668L248.138 186.589Z"
            fill="#262D37" />
        <path
            d="M201.925 123.661C201.797 123.677 201.674 123.718 201.562 123.782C201.45 123.845 201.352 123.93 201.273 124.032C197.919 128.345 193.416 130.599 189.789 130.684C187.976 130.727 186.402 130.248 185.205 129.27C184.009 128.292 183.144 126.795 182.848 124.593C182.814 124.336 182.678 124.103 182.472 123.945C182.265 123.788 182.005 123.718 181.747 123.753C181.49 123.788 181.257 123.923 181.099 124.13C180.941 124.336 180.872 124.597 180.907 124.854C181.256 127.451 182.356 129.471 183.965 130.787C185.574 132.102 187.645 132.694 189.835 132.643C194.215 132.54 199.152 129.951 202.82 125.234C202.899 125.133 202.957 125.017 202.991 124.893C203.025 124.769 203.034 124.639 203.018 124.511C203.002 124.384 202.961 124.26 202.898 124.149C202.834 124.037 202.749 123.939 202.647 123.86C202.442 123.7 202.182 123.629 201.925 123.661Z"
            fill="#262D37" />
        <mask id="mask6_55_9172" style="mask-type:luminance" maskUnits="userSpaceOnUse" x="-27" y="-1452" width="608" height="3216">
            <path d="M580.868 1763.35L580.868 -1451.05H-26.5642L-26.5642 1763.35H580.868Z" fill="white" />
        </mask>
        <g mask="url(#mask6_55_9172)">
            <path fill-rule="evenodd" clip-rule="evenodd" d="M181.877 124.724C183.167 134.321 195.024 133.662 202.046 124.633C201.729 127.929 191.161 173.14 195.211 223.85C185.958 223.818 178.797 223.737 173.261 223.617C171.624 150.692 178.638 130.604 181.877 124.724Z" fill="#262D37" />
        </g>
        <path
            d="M110.346 181.483C110.223 181.445 110.093 181.431 109.965 181.443C109.837 181.455 109.713 181.492 109.599 181.552C109.599 181.552 108.332 182.219 106.809 182.877C105.286 183.535 103.393 184.127 102.759 184.109C101.072 184.058 99.9091 183.702 98.4339 183.899C97.626 184.007 96.9681 184.378 95.9945 184.696C95.0207 185.013 93.8907 185.281 92.8055 185.229H92.805C92.4052 185.21 91.9658 185.442 91.7508 185.717C91.5358 185.992 91.4654 186.268 91.4342 186.527C91.3717 187.045 91.4794 187.557 91.7245 188.082C92.2147 189.133 93.3783 190.184 95.1885 190.405H95.1895C96.02 190.505 96.9943 190.428 97.8179 190.344C98.3293 190.292 98.4713 190.265 98.7363 190.226C99.5463 191.111 101.561 192.872 104.788 192.89C104.917 192.891 105.044 192.866 105.163 192.818C105.282 192.769 105.391 192.698 105.482 192.607C105.574 192.517 105.646 192.409 105.696 192.291C105.746 192.172 105.772 192.045 105.773 191.916C105.774 191.656 105.672 191.407 105.49 191.222C105.307 191.037 105.059 190.933 104.799 190.931C101.399 190.912 99.9569 188.645 99.9569 188.645C99.8529 188.489 99.706 188.365 99.5338 188.29C99.3617 188.215 99.1715 188.19 98.9859 188.22C98.9859 188.22 98.383 188.317 97.6189 188.395C96.8551 188.473 95.913 188.519 95.4258 188.46C94.221 188.313 93.7236 187.733 93.5001 187.254C93.4815 187.214 93.4934 187.211 93.48 187.172C94.6413 187.118 95.7148 186.848 96.6025 186.558C97.6841 186.205 98.657 185.846 98.6937 185.841H98.6942C99.6697 185.711 100.8 186.01 102.701 186.067C102.702 186.067 102.702 186.067 102.703 186.067C104.212 186.11 105.982 185.367 107.585 184.675C109.188 183.983 110.513 183.285 110.513 183.285C110.742 183.163 110.914 182.956 110.991 182.708C111.068 182.46 111.043 182.191 110.922 181.962C110.801 181.732 110.594 181.559 110.346 181.482L110.346 181.483Z"
            fill="#262D37" />
        <path
            d="M101.084 190.024C100.827 190.062 100.595 190.2 100.441 190.409C100.286 190.617 100.22 190.879 100.258 191.136C100.258 191.136 100.84 195.867 104.663 197.582C104.992 197.73 105.01 197.904 104.954 198.13C104.898 198.355 104.739 198.631 104.084 198.674C99.9914 198.945 95.5161 197.773 91.8312 194.425C91.553 194.171 91.3599 194.139 91.1687 194.087C90.9776 194.036 90.7864 194.004 90.5761 193.978C90.1555 193.927 89.6629 193.903 89.1215 193.897C88.9929 193.895 88.8652 193.919 88.7458 193.967C88.6263 194.015 88.5175 194.085 88.4255 194.175C88.3334 194.265 88.26 194.372 88.2094 194.491C88.1588 194.609 88.1319 194.736 88.1304 194.865C88.1289 194.993 88.1528 195.121 88.2006 195.24C88.2484 195.36 88.3193 195.469 88.4092 195.561C88.4991 195.653 88.6063 195.726 88.7245 195.777C88.8428 195.827 88.9699 195.854 89.0986 195.856C89.5936 195.862 90.035 195.886 90.3374 195.923C90.4791 195.94 90.5815 195.961 90.6373 195.975C94.7173 199.62 99.6958 200.928 104.214 200.629C105.565 200.54 106.591 199.662 106.855 198.602C107.119 197.543 106.592 196.301 105.465 195.795C102.871 194.631 102.196 190.85 102.196 190.85C102.158 190.593 102.02 190.361 101.811 190.206C101.602 190.051 101.341 189.986 101.084 190.024Z"
            fill="#262D37" />
        <path
            d="M95.0949 180.355C94.6961 180.384 94.3267 180.448 93.9924 180.544H93.9919C92.5619 180.953 89.4862 181.594 87.1385 181.96C86.8818 182 86.6515 182.14 86.4983 182.35C86.3451 182.56 86.2815 182.822 86.3215 183.079C86.3615 183.335 86.5018 183.566 86.7115 183.719C86.9213 183.872 87.1832 183.936 87.4398 183.896C89.8702 183.517 92.9157 182.89 94.5305 182.427C95.2335 182.227 96.8116 182.233 98.5575 182.985H98.5584C99.3598 183.33 100.275 183.541 101.056 183.71C101.446 183.794 101.802 183.865 102.073 183.924C102.159 183.943 102.137 183.938 102.206 183.957C102.184 184.029 102.144 184.096 101.981 184.162C101.861 184.21 101.753 184.281 101.661 184.371C101.569 184.461 101.496 184.568 101.445 184.687C101.395 184.805 101.368 184.932 101.367 185.061C101.366 185.189 101.39 185.317 101.438 185.436C101.535 185.677 101.724 185.87 101.963 185.972C102.202 186.073 102.472 186.076 102.713 185.979C103.571 185.633 104.065 184.862 104.169 184.165C104.221 183.816 104.198 183.479 104.086 183.151C103.974 182.822 103.765 182.459 103.315 182.25C103.314 182.249 103.313 182.248 103.312 182.247C103.002 182.105 102.796 182.077 102.494 182.01C102.192 181.944 101.841 181.874 101.469 181.794C100.723 181.634 99.8864 181.423 99.3324 181.185C97.7524 180.504 96.2911 180.268 95.0949 180.354L95.0949 180.355Z"
            fill="#262D37" />
        <path
            d="M112.217 192.394C112.093 192.361 111.963 192.353 111.835 192.37C111.708 192.387 111.585 192.429 111.474 192.494C111.474 192.494 110.352 193.146 108.903 193.861C107.454 194.576 105.65 195.341 104.531 195.552C104.275 195.6 104.05 195.748 103.903 195.963C103.757 196.177 103.701 196.441 103.75 196.696C103.773 196.823 103.822 196.943 103.892 197.051C103.963 197.159 104.054 197.252 104.16 197.324C104.266 197.397 104.386 197.447 104.512 197.474C104.638 197.5 104.768 197.501 104.894 197.477C106.434 197.187 108.256 196.365 109.77 195.618C111.283 194.872 112.458 194.188 112.458 194.188C112.57 194.123 112.667 194.037 112.745 193.935C112.823 193.832 112.88 193.716 112.913 193.591C112.946 193.467 112.954 193.337 112.937 193.21C112.92 193.083 112.878 192.96 112.813 192.848C112.682 192.624 112.468 192.46 112.217 192.394Z"
            fill="#262D37" />
        <path
            d="M18.7374 142.406C18.4916 142.49 18.2893 142.668 18.1749 142.902C18.1182 143.017 18.0848 143.143 18.0767 143.271C18.0685 143.4 18.0858 143.528 18.1274 143.65C18.169 143.772 18.2342 143.884 18.3192 143.981C18.4043 144.077 18.5075 144.156 18.6231 144.213C24.9394 147.311 30.3743 153.929 34.9181 160.319C37.19 163.514 39.2438 166.644 41.1176 169.246C42.9913 171.848 44.6412 173.924 46.3523 175.058C46.4596 175.129 46.5798 175.178 46.7061 175.203C46.8324 175.228 46.9623 175.227 47.0884 175.201C47.2145 175.176 47.3343 175.126 47.441 175.054C47.5477 174.982 47.6392 174.89 47.7103 174.783C47.8537 174.566 47.9053 174.301 47.8536 174.047C47.802 173.792 47.6513 173.569 47.4348 173.425C46.1957 172.604 44.5422 170.649 42.7075 168.101C40.8728 165.554 38.8134 162.417 36.5147 159.184C31.9173 152.718 26.3829 145.838 19.4859 142.454C19.3704 142.397 19.2449 142.364 19.1164 142.356C18.988 142.347 18.8592 142.364 18.7374 142.406Z"
            fill="#262D37" />
        <path
            d="M5.01615 168.801C4.76134 168.751 4.49707 168.804 4.28144 168.949C4.06576 169.094 3.91638 169.318 3.86615 169.573C3.81592 169.828 3.86895 170.092 4.01358 170.308C17.4267 190.301 43.1925 205.16 48.4784 208.097C48.4786 208.097 48.4787 208.097 48.4789 208.097C50.2344 209.072 52.8351 209.021 56.0158 208.7C59.1965 208.379 62.9085 207.672 66.526 206.851C73.7607 205.209 80.5293 203.135 81.8266 202.69C83.4449 202.135 84.1304 201.223 84.6171 200.695C85.1037 200.166 85.4792 199.787 87.3871 199.441H87.3856C87.9105 199.346 88.4633 199.069 88.8779 198.611C89.2926 198.152 89.5775 197.552 89.7791 196.8C90.1822 195.296 90.2848 193.122 90.0637 189.734C89.8516 186.483 89.2997 184.375 88.4958 182.977C87.6923 181.58 86.4942 180.902 85.3977 180.923H85.3957C76.539 181.085 67.1951 179.197 59.6491 176.935C55.8758 175.804 52.5505 174.581 49.9616 173.483C47.3728 172.385 45.484 171.375 44.7546 170.833C44.5461 170.678 44.2846 170.612 44.0276 170.65C43.7706 170.688 43.5392 170.826 43.3842 171.035C43.2293 171.243 43.1635 171.505 43.2014 171.762C43.2392 172.019 43.3776 172.25 43.5861 172.405C44.6316 173.182 46.534 174.158 49.1963 175.287C51.8586 176.416 55.2444 177.66 59.0866 178.812C66.7708 181.115 76.2742 183.049 85.4335 182.881C85.434 182.881 85.4345 182.881 85.435 182.881C85.8064 182.874 86.2362 182.979 86.7972 183.954C87.3582 184.93 87.908 186.784 88.1088 189.861C88.3233 193.149 88.1827 195.189 87.8868 196.293C87.7389 196.845 87.5597 197.148 87.4248 197.297C87.2899 197.446 87.2076 197.482 87.0388 197.512C87.0383 197.512 87.0378 197.512 87.0373 197.512C84.8568 197.908 83.8059 198.684 83.1758 199.368C82.5457 200.053 82.4235 200.414 81.1913 200.836C80.1261 201.202 73.2356 203.32 66.0925 204.941C62.521 205.752 58.8643 206.444 55.8191 206.751C52.774 207.058 50.292 206.863 49.4297 206.385C44.2438 203.503 18.6531 188.612 5.64029 169.217C5.4955 169.001 5.27103 168.851 5.01615 168.801Z"
            fill="#262D37" />
        <path
            d="M64.8161 144.82C64.5646 144.885 64.3495 145.048 64.2179 145.272C64.0863 145.496 64.049 145.763 64.1144 146.014C65.5567 151.56 65.5713 159.159 65.2518 165.73C65.0921 169.016 64.8535 172.048 64.684 174.468C64.5146 176.888 64.38 178.583 64.5453 179.667C64.5845 179.923 64.724 180.154 64.9333 180.308C65.1426 180.462 65.4044 180.527 65.6612 180.487C65.9181 180.448 66.1488 180.309 66.3028 180.099C66.4567 179.89 66.5212 179.628 66.482 179.372C66.4075 178.883 66.47 177.011 66.6385 174.605C66.8069 172.199 67.0471 169.147 67.2086 165.825C67.5316 159.182 67.5602 151.478 66.0109 145.521C65.9785 145.396 65.9219 145.28 65.8443 145.177C65.7667 145.074 65.6697 144.988 65.5587 144.923C65.4478 144.858 65.3251 144.815 65.1976 144.797C65.0702 144.78 64.9405 144.787 64.8161 144.82Z"
            fill="#262D37" />
        <path
            d="M41.9345 90.8094C40.9036 90.7801 40.0391 90.9685 39.3539 91.2561C37.9837 91.8313 37.2924 92.8312 37.2924 92.8312C37.2207 92.938 37.1707 93.058 37.1453 93.1841C37.12 93.3102 37.1197 93.44 37.1445 93.5662C37.1693 93.6925 37.2188 93.8126 37.29 93.9197C37.3613 94.0268 37.4529 94.1189 37.5598 94.1906C37.6666 94.2623 37.7865 94.3123 37.9126 94.3376C38.0387 94.363 38.1686 94.3633 38.2948 94.3385C38.4211 94.3137 38.5412 94.2642 38.6483 94.193C38.7554 94.1217 38.8474 94.03 38.9191 93.9232C38.9191 93.9232 39.2278 93.4341 40.1126 93.0627C40.9973 92.6913 42.4204 92.467 44.7375 93.4683C44.8556 93.5194 44.9826 93.5467 45.1113 93.5487C45.2399 93.5506 45.3677 93.5272 45.4874 93.4798C45.607 93.4324 45.7161 93.3618 45.8084 93.2722C45.9008 93.1826 45.9746 93.0756 46.0256 92.9575C46.1286 92.719 46.1326 92.4493 46.0368 92.2078C45.941 91.9664 45.7532 91.7729 45.5147 91.6699C44.1629 91.0856 42.9654 90.8386 41.9345 90.8094Z"
            fill="#262D37" />
        <path
            d="M34.633 83.0273C34.4784 83.0986 34.3451 83.2088 34.2461 83.3473C34.1472 83.4858 34.086 83.6477 34.0686 83.817C33.6596 87.799 32.3557 90.8446 29.7934 92.8566C29.6921 92.936 29.6076 93.0347 29.5445 93.1468C29.4814 93.2589 29.441 93.3823 29.4256 93.5101C29.4103 93.6378 29.4202 93.7674 29.4549 93.8913C29.4896 94.0152 29.5484 94.131 29.6279 94.2322C29.7073 94.3334 29.8059 94.418 29.9181 94.4811C30.0302 94.5442 30.1537 94.5846 30.2814 94.5999C30.4092 94.6153 30.5387 94.6053 30.6626 94.5706C30.7865 94.5359 30.9023 94.4772 31.0035 94.3977C33.6954 92.284 35.1281 89.1763 35.7518 85.5461C41.8903 89.5401 48.3538 91.9303 55.1129 92.6514C55.1864 93.698 55.4711 98.0849 55.1181 103.646C54.7205 109.91 53.3108 116.856 50.3851 119.473C48.7427 120.942 45.5952 121.798 42.2647 121.489C38.9338 121.18 35.4652 119.759 33.0546 117.004C32.9699 116.907 32.8669 116.828 32.7516 116.771C32.6363 116.714 32.5109 116.68 32.3825 116.671C32.2541 116.663 32.1253 116.679 32.0035 116.721C31.8816 116.762 31.769 116.827 31.6722 116.911C31.5754 116.996 31.4962 117.099 31.4391 117.214C31.3821 117.33 31.3483 117.455 31.3397 117.583C31.3312 117.712 31.348 117.841 31.3892 117.962C31.4304 118.084 31.4952 118.197 31.5799 118.294C34.3812 121.496 38.3292 123.092 42.0839 123.44C45.8385 123.788 49.4455 122.942 51.6914 120.933C55.5686 117.465 56.6655 110.199 57.0735 103.771C57.4815 97.3436 57.0276 91.7005 57.0276 91.7005C57.009 91.4694 56.9091 91.2523 56.7456 91.0879C56.5821 90.9235 56.3656 90.8225 56.1346 90.8027C48.9546 90.1886 42.1288 87.6276 35.6002 83.112C35.4602 83.0151 35.2974 82.9564 35.1278 82.9417C34.9582 82.9269 34.7877 82.9566 34.633 83.0278L34.633 83.0273ZM29.4619 94.5699C29.3332 94.572 29.2063 94.5994 29.0882 94.6505C28.9701 94.7016 28.8633 94.7755 28.7738 94.8679C28.6843 94.9603 28.6139 95.0696 28.5666 95.1892C28.5193 95.3088 28.496 95.4366 28.4981 95.5653C28.588 101.223 28.9983 124.383 29.9163 134.663C29.9534 135.078 29.9321 135.725 29.5403 136.381C29.1486 137.036 28.37 137.774 26.5929 138.299C26.4695 138.335 26.3545 138.395 26.2544 138.476C26.1543 138.557 26.0711 138.657 26.0096 138.77C25.9481 138.883 25.9094 139.007 25.8959 139.135C25.8823 139.263 25.894 139.392 25.9304 139.515C25.9668 139.639 26.0272 139.754 26.108 139.854C26.1889 139.954 26.2886 140.037 26.4016 140.099C26.5146 140.16 26.6386 140.199 26.7666 140.212C26.8945 140.226 27.0239 140.214 27.1473 140.178C29.2729 139.551 30.5539 138.503 31.2216 137.386C31.8894 136.269 31.9279 135.16 31.8678 134.488C30.9686 124.418 30.5471 101.18 30.4573 95.5332C30.4552 95.4046 30.4278 95.2776 30.3767 95.1595C30.3256 95.0415 30.2517 94.9347 30.1592 94.8452C30.0668 94.7557 29.9576 94.6853 29.838 94.6379C29.7183 94.5906 29.5905 94.5673 29.4619 94.5694V94.5699Z"
            fill="#262D37" />
        <path
            d="M46.9311 121.205C46.6716 121.195 46.4187 121.289 46.2281 121.465C46.0375 121.642 45.9248 121.887 45.9147 122.146C45.8955 122.645 45.8692 123.222 45.8491 123.843C45.845 123.971 45.8662 124.099 45.9116 124.22C45.957 124.34 46.0256 124.45 46.1136 124.544C46.2016 124.638 46.3072 124.714 46.4244 124.767C46.5416 124.82 46.6681 124.849 46.7967 124.853C47.0563 124.862 47.3086 124.767 47.4981 124.589C47.6877 124.412 47.7989 124.166 47.8074 123.906C47.8269 123.302 47.8529 122.731 47.8724 122.222C47.8774 122.093 47.8569 121.965 47.8123 121.844C47.7677 121.724 47.6997 121.613 47.6123 121.519C47.5249 121.424 47.4197 121.348 47.3029 121.294C47.186 121.24 47.0597 121.21 46.9311 121.205ZM46.8359 125.456C46.7073 125.457 46.5801 125.484 46.4618 125.534C46.3434 125.585 46.2361 125.658 46.146 125.75C46.056 125.842 45.9848 125.95 45.9368 126.07C45.8887 126.189 45.8646 126.317 45.8659 126.445C45.8747 127.325 45.5849 130.491 47.7629 132.579C47.9834 132.79 48.1456 132.867 48.3622 132.983C48.5789 133.099 48.8332 133.22 49.1314 133.355C49.7277 133.625 50.4958 133.946 51.39 134.316C53.1784 135.055 55.4667 135.985 57.7785 137.022C60.0902 138.059 62.4266 139.205 64.2808 140.353C66.135 141.501 67.4732 142.716 67.8376 143.497C68.333 144.56 69.0503 147.139 69.8179 150.374C70.5855 153.608 71.4399 157.551 72.3601 161.587C74.2007 169.658 76.2291 178.019 78.5975 182.21C78.6607 182.322 78.7454 182.42 78.8468 182.499C78.9481 182.579 79.0641 182.637 79.1881 182.672C79.312 182.706 79.4416 182.716 79.5693 182.7C79.697 182.685 79.8204 182.644 79.9325 182.581C80.0445 182.517 80.1429 182.433 80.2222 182.331C80.3014 182.23 80.3599 182.114 80.3943 181.99C80.4288 181.866 80.4384 181.737 80.4228 181.609C80.4071 181.481 80.3665 181.358 80.3032 181.246C78.2665 177.642 76.105 169.196 74.2706 161.151C73.3534 157.129 72.4987 153.186 71.724 149.921C70.9492 146.656 70.2906 144.122 69.6136 142.67C68.8962 141.131 67.2938 139.914 65.3116 138.687C63.3294 137.46 60.9333 136.29 58.5802 135.234C56.227 134.179 53.9174 133.241 52.1386 132.505C51.2492 132.138 50.4914 131.82 49.9398 131.57C49.6639 131.445 49.4388 131.337 49.2854 131.255C49.132 131.173 49.0338 131.084 49.1185 131.165C47.7407 129.844 47.8368 127.587 47.8251 126.426C47.8224 126.166 47.7167 125.918 47.5313 125.736C47.3458 125.554 47.0957 125.454 46.8359 125.456Z"
            fill="#262D37" />
        <path
            d="M53.5759 90.5374C51.5123 90.8124 50.2898 91.8346 50.2898 91.8346C50.1924 91.9187 50.1125 92.0211 50.0547 92.1361C49.9968 92.251 49.9622 92.3762 49.9528 92.5045C49.9434 92.6328 49.9594 92.7618 49.9998 92.8839C50.0402 93.0061 50.1043 93.1191 50.1884 93.2165C50.3582 93.413 50.5991 93.534 50.8582 93.5529C51.1172 93.5719 51.3732 93.4871 51.5698 93.3174C51.5698 93.3174 52.259 92.6893 53.8346 92.4794C53.9622 92.4624 54.0851 92.4205 54.1965 92.356C54.3078 92.2915 54.4054 92.2056 54.4836 92.1034C54.5617 92.0012 54.619 91.8847 54.6521 91.7604C54.6852 91.636 54.6935 91.5063 54.6765 91.3788C54.6595 91.2513 54.6175 91.1283 54.553 91.0171C54.4884 90.9058 54.4026 90.8083 54.3004 90.7302C54.1982 90.6521 54.0816 90.5948 53.9573 90.5617C53.833 90.5286 53.7034 90.5204 53.5759 90.5374Z"
            fill="#262D37" />
        <path
            d="M49.383 92.922C49.2566 92.9463 49.1363 92.9952 49.0289 93.0661C48.9214 93.1369 48.829 93.2282 48.7569 93.3348C48.4244 93.8258 48.2535 94.3937 48.0772 95.1672C47.9008 95.9407 47.7669 96.8836 47.7218 97.9318C47.6316 100.028 47.8913 102.549 48.9903 104.858C49.0376 104.958 49.0631 105.061 49.0644 105.103C49.0659 105.145 49.0827 105.114 49.0415 105.163C48.9589 105.262 48.3018 105.693 46.4294 105.772C46.3008 105.778 46.1746 105.808 46.0579 105.863C45.9412 105.917 45.8363 105.993 45.7493 106.088C45.6622 106.183 45.5946 106.294 45.5505 106.415C45.5063 106.536 45.4864 106.664 45.4918 106.793C45.5029 107.052 45.6166 107.297 45.8079 107.472C45.9993 107.648 46.2526 107.741 46.5121 107.73C48.6222 107.64 49.8338 107.265 50.541 106.424C50.8946 106.004 51.0367 105.47 51.0227 105.039C51.0087 104.608 50.8788 104.267 50.7596 104.016H50.7591C49.8499 102.106 49.599 99.8781 49.6791 98.017C49.7191 97.0864 49.8401 96.2482 49.9871 95.6034C50.1341 94.9586 50.3544 94.4712 50.3793 94.4344C50.4515 94.3279 50.502 94.2081 50.5279 94.082C50.5538 93.9559 50.5546 93.8261 50.5302 93.6997C50.5059 93.5733 50.4569 93.453 50.386 93.3455C50.3151 93.2381 50.2238 93.1457 50.1172 93.0736C49.9021 92.928 49.638 92.8738 49.383 92.9229V92.922Z"
            fill="#262D37" />
        <path
            d="M41.4405 107.25C41.0926 107.331 40.8714 107.536 40.7311 107.711C40.4506 108.062 40.3638 108.392 40.2863 108.769C40.1313 109.525 40.1321 110.471 40.3576 111.49C40.583 112.51 41.046 113.6 41.8978 114.496C42.7495 115.392 44.0008 116.055 45.5985 116.202H45.598C46.5709 116.292 47.4437 115.897 48.1035 115.358C48.7633 114.82 49.259 114.131 49.615 113.437C49.971 112.743 50.198 112.062 50.2115 111.378C50.2182 111.037 50.1852 110.663 49.9211 110.28C49.6572 109.897 49.0777 109.652 48.6316 109.691H48.6306C45.5722 109.961 43.4933 108.237 42.4162 107.457C42.1854 107.29 41.7883 107.17 41.4404 107.251L41.4405 107.25ZM42.1661 109.692C43.3863 110.537 45.4743 111.697 48.1915 111.648C48.1363 111.897 48.0446 112.205 47.8715 112.543C47.619 113.035 47.2491 113.526 46.8647 113.84C46.4802 114.154 46.13 114.284 45.7784 114.251C45.7781 114.251 45.7777 114.251 45.7774 114.251C44.6009 114.143 43.8613 113.718 43.3174 113.146C42.7735 112.574 42.4363 111.818 42.2703 111.067C42.1577 110.558 42.1464 110.093 42.1661 109.692Z"
            fill="#262D37" />
        <mask id="mask7_55_9172" style="mask-type:luminance" maskUnits="userSpaceOnUse" x="-27" y="-1452" width="608" height="3216">
            <path d="M580.868 1763.35L580.868 -1451.05H-26.5642L-26.5642 1763.35H580.868Z" fill="white" />
        </mask>
        <g mask="url(#mask7_55_9172)">
            <path fill-rule="evenodd" clip-rule="evenodd"
                d="M43.1352 97.5283C43.1352 97.9526 43.0311 98.3596 42.846 98.6596C42.6609 98.9597 42.4098 99.1282 42.148 99.1282C41.8861 99.1282 41.635 98.9597 41.4499 98.6596C41.2648 98.3596 41.1608 97.9526 41.1608 97.5283C41.1608 97.104 41.2648 96.697 41.4499 96.397C41.635 96.0969 41.8861 95.9285 42.148 95.9285C42.4098 95.9285 42.6609 96.0969 42.846 96.397C43.0311 96.697 43.1352 97.104 43.1352 97.5283Z"
                fill="#262D37" />
        </g>
        <mask id="mask8_55_9172" style="mask-type:luminance" maskUnits="userSpaceOnUse" x="-27" y="-1452" width="608" height="3216">
            <path d="M580.868 1763.35L580.868 -1451.05H-26.5642L-26.5642 1763.35H580.868Z" fill="white" />
        </mask>
        <g mask="url(#mask8_55_9172)">
            <path fill-rule="evenodd" clip-rule="evenodd"
                d="M53.7056 97.5281C53.7056 97.9524 53.6016 98.3593 53.4164 98.6594C53.2313 98.9594 52.9802 99.128 52.7184 99.128C52.4566 99.128 52.2055 98.9594 52.0203 98.6594C51.8352 98.3593 51.7312 97.9524 51.7312 97.5281C51.7312 97.1037 51.8352 96.6968 52.0203 96.3967C52.2055 96.0967 52.4566 95.9282 52.7184 95.9282C52.9802 95.9282 53.2313 96.0967 53.4164 96.3967C53.6016 96.6968 53.7056 97.1037 53.7056 97.5281Z"
                fill="#262D37" />
        </g>
        <path
            d="M47.0957 126.056C46.8451 125.988 46.5776 126.021 46.3519 126.15C41.1772 129.103 36.1164 128.387 30.7801 126.128C30.5409 126.027 30.2713 126.025 30.0306 126.123C29.7898 126.22 29.5976 126.409 29.4963 126.648C29.4461 126.767 29.4197 126.894 29.4187 127.023C29.4177 127.151 29.4421 127.279 29.4904 127.398C29.5387 127.518 29.6101 127.626 29.7004 127.718C29.7907 127.81 29.8982 127.883 30.0167 127.933C35.6398 130.313 41.5387 131.153 47.3234 127.852C47.4351 127.788 47.5331 127.703 47.6119 127.601C47.6907 127.5 47.7487 127.383 47.7826 127.259C47.8165 127.135 47.8256 127.006 47.8094 126.878C47.7933 126.75 47.7521 126.627 47.6883 126.515C47.5595 126.29 47.3463 126.125 47.0957 126.056Z"
            fill="#262D37" />
        <path
            d="M51.6851 132.446C51.4256 132.459 51.1816 132.574 51.0068 132.766C50.832 132.958 50.7406 133.211 50.7528 133.471C50.7528 133.471 51.1601 142.169 51.3637 150.707C51.4655 154.976 51.5159 159.208 51.4402 162.269C51.4069 163.615 51.3372 164.612 51.2541 165.382C46.4594 161.43 41.4381 154.74 37.5885 148.856C33.4548 142.537 30.6423 137.2 30.6423 137.2C30.5212 136.97 30.3138 136.798 30.0657 136.721C29.8176 136.644 29.5491 136.669 29.3192 136.79C29.2054 136.85 29.1045 136.932 29.0223 137.031C28.9401 137.13 28.8782 137.244 28.8401 137.367C28.8021 137.49 28.7886 137.619 28.8004 137.747C28.8123 137.875 28.8493 138 28.9093 138.113C28.9093 138.113 31.7617 143.527 35.9493 149.928C40.1368 156.329 45.626 163.729 51.1475 167.821C51.2819 167.921 51.4868 168.026 51.7406 168.042C51.9944 168.059 52.2578 167.968 52.4251 167.855C52.7596 167.628 52.8318 167.409 52.9058 167.229C53.0538 166.87 53.11 166.522 53.1708 166.067C53.2922 165.156 53.3603 163.881 53.3989 162.317C53.4762 159.19 53.4245 154.944 53.3224 150.66C53.1181 142.091 52.7097 133.379 52.7097 133.379C52.7036 133.251 52.6724 133.124 52.6176 133.008C52.5629 132.892 52.4857 132.787 52.3906 132.7C52.2955 132.614 52.1842 132.547 52.0631 132.503C51.9421 132.46 51.8136 132.44 51.6851 132.446Z"
            fill="#262D37" />
        <mask id="mask9_55_9172" style="mask-type:luminance" maskUnits="userSpaceOnUse" x="-27" y="-1452" width="608" height="3216">
            <path d="M580.868 1763.35L580.868 -1451.05H-26.5642L-26.5642 1763.35H580.868Z" fill="white" />
        </mask>
        <g mask="url(#mask9_55_9172)">
            <path fill-rule="evenodd" clip-rule="evenodd"
                d="M29.7759 137.657C30.8865 136.542 30.9548 135.279 30.8919 134.576C30.7075 132.511 30.5436 129.911 30.3984 127.031C35.8781 129.35 41.358 130.129 46.8376 127.001C46.9491 129.09 47.3412 131.054 48.4408 131.872C48.9019 132.215 50.1132 132.751 51.7312 133.425C51.7312 133.425 53.3628 168.244 51.7312 167.034C41.1057 159.158 29.7759 137.657 29.7759 137.657Z"
                fill="#262D37" />
        </g>
        <path
            d="M87.9798 183.205L84.2355 183.283C84.1068 183.286 83.98 183.314 83.8622 183.366C83.7443 183.417 83.6378 183.492 83.5488 183.585C83.4597 183.678 83.3898 183.787 83.3431 183.907C83.2964 184.027 83.2737 184.155 83.2765 184.283C83.2819 184.543 83.3902 184.79 83.5777 184.97C83.7652 185.15 84.0164 185.248 84.2762 185.242L88.0205 185.164C88.1491 185.161 88.276 185.133 88.3938 185.082C88.5116 185.03 88.6181 184.956 88.7072 184.863C88.7963 184.77 88.8661 184.66 88.9129 184.54C88.9596 184.42 88.9822 184.292 88.9795 184.164C88.974 183.904 88.8656 183.657 88.6781 183.478C88.4906 183.298 88.2395 183.2 87.9798 183.205Z"
            fill="#262D37" />
        <path
            d="M84.951 187.853C84.6912 187.853 84.4421 187.956 84.2584 188.14C84.0746 188.323 83.9714 188.573 83.9714 188.832C83.9714 189.092 84.0746 189.341 84.2584 189.525C84.4421 189.709 84.6912 189.812 84.951 189.812H89.0091C89.2689 189.812 89.5181 189.709 89.7018 189.525C89.8855 189.341 89.9887 189.092 89.9887 188.832C89.9887 188.573 89.8855 188.323 89.7018 188.14C89.5181 187.956 89.2689 187.853 89.0091 187.853H84.951Z"
            fill="#262D37" />
        <path
            d="M89.1401 192.216L85.2523 192.424C84.9929 192.438 84.7497 192.555 84.5762 192.748C84.4026 192.941 84.3129 193.195 84.3267 193.455C84.3405 193.714 84.4569 193.957 84.6501 194.131C84.8433 194.305 85.0976 194.394 85.357 194.381L89.2448 194.173C89.5042 194.159 89.7475 194.042 89.9211 193.849C90.0946 193.656 90.1843 193.401 90.1704 193.142C90.1564 192.882 90.04 192.639 89.8468 192.466C89.6536 192.292 89.3994 192.202 89.1401 192.216Z"
            fill="#262D37" />
        <path
            d="M88.9723 194.962C88.48 194.96 87.7933 195.056 87.0361 195.146C86.2789 195.236 85.5873 195.326 85.5873 195.326C85.4597 195.342 85.3366 195.384 85.2251 195.448C85.1136 195.512 85.0158 195.598 84.9373 195.7C84.8588 195.801 84.8012 195.918 84.7677 196.042C84.7342 196.166 84.7255 196.296 84.7421 196.423C84.7586 196.551 84.8002 196.674 84.8643 196.786C84.9285 196.897 85.0139 196.995 85.1159 197.073C85.2178 197.152 85.3342 197.21 85.4584 197.243C85.5826 197.277 85.7122 197.285 85.8398 197.269C85.8398 197.269 86.5232 197.179 87.2671 197.091C88.0111 197.003 88.9513 196.921 88.9628 196.921C89.0914 196.922 89.2189 196.897 89.338 196.849C89.4571 196.8 89.5655 196.728 89.6569 196.638C89.7483 196.547 89.821 196.44 89.8708 196.321C89.9206 196.202 89.9465 196.075 89.9472 195.947C89.9478 195.818 89.9231 195.69 89.8744 195.571C89.8258 195.452 89.7542 195.344 89.6636 195.253C89.5731 195.161 89.4655 195.088 89.3469 195.039C89.2283 194.989 89.101 194.963 88.9723 194.962Z"
            fill="#262D37" />
    </g>
    <defs>
        <clipPath id="clip0_55_9172">
            <rect width="260" height="235" fill="white" />
        </clipPath>
    </defs>
</svg>
